<svg width="112" height="44" viewBox="0 0 112 44" fill="none" xmlns="http://www.w3.org/2000/svg">
<g clip-path="url(#clip0_4237_50)">
<path d="M41.2056 38.9886V36.6614C41.2056 35.7712 40.6619 35.1883 39.7284 35.1883C39.2617 35.1883 38.7542 35.3419 38.4053 35.848C38.1334 35.4233 37.7437 35.1883 37.1592 35.1883C36.7695 35.1883 36.3798 35.3058 36.0717 35.7305V35.2651H35.2561V38.9886H36.0717V36.9325C36.0717 36.2728 36.4206 35.961 36.9644 35.961C37.5081 35.961 37.78 36.3089 37.78 36.9325V38.9886H38.5956V36.9325C38.5956 36.2728 38.9853 35.961 39.4883 35.961C40.032 35.961 40.3039 36.3089 40.3039 36.9325V38.9886H41.2056ZM53.304 35.2651H51.9809V34.14H51.1653V35.2651H50.4267V36.0017H51.1653V37.7098C51.1653 38.5638 51.5142 39.0654 52.4476 39.0654C52.7965 39.0654 53.1862 38.9479 53.4581 38.7943L53.2224 38.0939C52.9868 38.2475 52.7149 38.2882 52.5201 38.2882C52.1304 38.2882 51.9763 38.0532 51.9763 37.6691V36.0017H53.2995V35.2651H53.304ZM60.2277 35.1838C59.761 35.1838 59.4483 35.4188 59.2535 35.726V35.2606H58.4379V38.984H59.2535V36.8873C59.2535 36.2683 59.5254 35.9158 60.0329 35.9158C60.1869 35.9158 60.3818 35.9565 60.5404 35.9926L60.776 35.2154C60.6129 35.1838 60.3818 35.1838 60.2277 35.1838ZM49.7651 35.5724C49.3754 35.3013 48.8317 35.1838 48.2471 35.1838C47.3137 35.1838 46.6929 35.6492 46.6929 36.3858C46.6929 37.0048 47.1596 37.3573 47.9753 37.4703L48.365 37.5109C48.7909 37.5877 49.0265 37.7052 49.0265 37.8995C49.0265 38.1707 48.7139 38.365 48.1701 38.365C47.6264 38.365 47.1959 38.1707 46.924 37.9764L46.5343 38.5954C46.9603 38.9072 47.5448 39.0609 48.1293 39.0609C49.2168 39.0609 49.8421 38.5548 49.8421 37.8589C49.8421 37.1991 49.3346 36.8512 48.5598 36.7337L48.1701 36.693C47.8212 36.6524 47.5493 36.5756 47.5493 36.3451C47.5493 36.074 47.8212 35.9203 48.2517 35.9203C48.7184 35.9203 49.1851 36.1146 49.4207 36.2321L49.7651 35.5724ZM71.4652 35.1838C70.9984 35.1838 70.6858 35.4188 70.491 35.726V35.2606H69.6753V38.984H70.491V36.8873C70.491 36.2683 70.7628 35.9158 71.2703 35.9158C71.4244 35.9158 71.6192 35.9565 71.7778 35.9926L72.0134 35.2244C71.8549 35.1838 71.6238 35.1838 71.4652 35.1838ZM61.0433 37.1268C61.0433 38.252 61.8227 39.0654 63.028 39.0654C63.5718 39.0654 63.9614 38.9479 64.3511 38.6406L63.9614 37.9809C63.6488 38.2159 63.3407 38.3288 62.9872 38.3288C62.3257 38.3288 61.859 37.8634 61.859 37.1268C61.859 36.4264 62.3257 35.961 62.9872 35.9249C63.3361 35.9249 63.6488 36.0423 63.9614 36.2728L64.3511 35.6131C63.9614 35.3013 63.5718 35.1883 63.028 35.1883C61.8227 35.1838 61.0433 36.0017 61.0433 37.1268ZM68.5878 37.1268V35.2651H67.7722V35.7305C67.5003 35.3826 67.1107 35.1883 66.6032 35.1883C65.5519 35.1883 64.7363 36.0017 64.7363 37.1268C64.7363 38.252 65.5519 39.0654 66.6032 39.0654C67.1469 39.0654 67.5366 38.8711 67.7722 38.5231V38.9886H68.5878V37.1268ZM65.5927 37.1268C65.5927 36.4671 66.0186 35.9249 66.721 35.9249C67.3825 35.9249 67.8492 36.431 67.8492 37.1268C67.8492 37.7866 67.3825 38.3288 66.721 38.3288C66.0232 38.2882 65.5927 37.7821 65.5927 37.1268ZM55.8324 35.1838C54.7449 35.1838 53.9656 35.961 53.9656 37.1223C53.9656 38.2882 54.7449 39.0609 55.8732 39.0609C56.4169 39.0609 56.9607 38.9072 57.3912 38.5548L57.0015 37.9718C56.6888 38.2068 56.2991 38.3605 55.914 38.3605C55.4065 38.3605 54.9035 38.1255 54.7857 37.4703H57.5452C57.5452 37.3528 57.5452 37.276 57.5452 37.1585C57.5815 35.961 56.8791 35.1838 55.8324 35.1838ZM55.8324 35.8842C56.3399 35.8842 56.6888 36.196 56.7659 36.7744H54.822C54.899 36.2728 55.2479 35.8842 55.8324 35.8842ZM76.0961 37.1268V33.792H75.2805V35.7305C75.0086 35.3826 74.6189 35.1883 74.1114 35.1883C73.0602 35.1883 72.2445 36.0017 72.2445 37.1268C72.2445 38.252 73.0602 39.0654 74.1114 39.0654C74.6551 39.0654 75.0448 38.8711 75.2805 38.5231V38.9886H76.0961V37.1268ZM73.1009 37.1268C73.1009 36.4671 73.5269 35.9249 74.2292 35.9249C74.8908 35.9249 75.3575 36.431 75.3575 37.1268C75.3575 37.7866 74.8908 38.3288 74.2292 38.3288C73.5269 38.2882 73.1009 37.7821 73.1009 37.1268ZM45.7957 37.1268V35.2651H44.9801V35.7305C44.7082 35.3826 44.3186 35.1883 43.8111 35.1883C42.7598 35.1883 41.9442 36.0017 41.9442 37.1268C41.9442 38.252 42.7598 39.0654 43.8111 39.0654C44.3548 39.0654 44.7445 38.8711 44.9801 38.5231V38.9886H45.7957V37.1268ZM42.7644 37.1268C42.7644 36.4671 43.1903 35.9249 43.8926 35.9249C44.5542 35.9249 45.0209 36.431 45.0209 37.1268C45.0209 37.7866 44.5542 38.3288 43.8926 38.3288C43.1903 38.2882 42.7644 37.7821 42.7644 37.1268Z" fill="black"/>
<path d="M61.7457 6.98682H49.4933V28.9389H61.7457V6.98682Z" fill="#FF5A00"/>
<path d="M50.3093 17.9629C50.3093 13.5029 52.4118 9.5445 55.638 6.98689C53.2637 5.12517 50.2685 4 47.0015 4C39.2622 4 33 10.2449 33 17.9629C33 25.6809 39.2622 31.9258 47.0015 31.9258C50.2685 31.9258 53.2637 30.8007 55.638 28.9389C52.4073 26.4175 50.3093 22.4229 50.3093 17.9629Z" fill="#EB001B"/>
<path d="M78.2755 17.9629C78.2755 25.6809 72.0133 31.9258 64.274 31.9258C61.007 31.9258 58.0118 30.8006 55.6375 28.9389C58.9045 26.3768 60.9662 22.4229 60.9662 17.9629C60.9662 13.5029 58.8637 9.5445 55.6375 6.98689C58.0073 5.12517 61.0024 4 64.2694 4C72.0133 4 78.2755 10.2855 78.2755 17.9629Z" fill="#F79E1B"/>
</g>
<defs>
<clipPath id="clip0_4237_50">
<rect width="112" height="44" fill="white"/>
</clipPath>
</defs>
</svg>
