<svg width="112" height="44" viewBox="0 0 112 44" fill="none" xmlns="http://www.w3.org/2000/svg">
<g clip-path="url(#clip0_4237_58)">
<path d="M39.5406 22.0194C39.5406 26.107 42.1657 28.9571 45.8033 28.9571C49.4409 28.9571 52.0659 26.107 52.0659 22.0194C52.0659 17.9318 49.4409 15.0818 45.8033 15.0818C42.1657 15.0818 39.5406 17.9318 39.5406 22.0194ZM49.6659 22.0194C49.6659 24.9445 48.0721 26.8383 45.8033 26.8383C43.5345 26.8383 41.9407 24.9445 41.9407 22.0194C41.9407 19.0944 43.5345 17.2006 45.8033 17.2006C48.0721 17.2006 49.6659 19.0944 49.6659 22.0194Z" fill="black"/>
<path d="M58.8246 28.9567C61.581 28.9567 63.156 26.6317 63.156 23.8379C63.156 21.044 61.581 18.719 58.8246 18.719C57.5496 18.719 56.6121 19.2253 55.9933 19.9565V18.9065H53.7433V32.1255H55.9933V27.7192C56.6121 28.4505 57.5496 28.9567 58.8246 28.9567ZM55.9371 23.5566C55.9371 21.7003 56.9871 20.6878 58.3746 20.6878C60.0059 20.6878 60.8872 21.9628 60.8872 23.8379C60.8872 25.7129 60.0059 26.9879 58.3746 26.9879C56.9871 26.9879 55.9371 25.9567 55.9371 24.1379V23.5566Z" fill="black"/>
<path d="M69.245 28.9567C71.2138 28.9567 72.7701 27.9254 73.4639 26.2004L71.5326 25.4691C71.2326 26.4817 70.3513 27.0442 69.245 27.0442C67.8013 27.0442 66.7887 26.0129 66.62 24.3254H73.5201V23.5753C73.5201 20.8753 72.0013 18.719 69.1513 18.719C66.3012 18.719 64.4637 20.9503 64.4637 23.8379C64.4637 26.8754 66.4325 28.9567 69.245 28.9567ZM69.1325 20.6128C70.5576 20.6128 71.2326 21.5503 71.2513 22.6378H66.7325C67.07 21.3065 67.97 20.6128 69.1325 20.6128Z" fill="black"/>
<path d="M75.2086 28.7505H77.4587V22.9753C77.4587 21.5691 78.4899 20.819 79.5025 20.819C80.74 20.819 81.2275 21.7003 81.2275 22.9191V28.7505H83.4775V22.2628C83.4775 20.144 82.24 18.719 80.1775 18.719C78.9024 18.719 78.0212 19.3003 77.4587 19.9565V18.9065H75.2086V28.7505Z" fill="black"/>
<path d="M90.0674 15.2876L84.9673 28.7504H87.3486L88.4924 25.6753H94.305L95.4675 28.7504H97.8863L92.7862 15.2876H90.0674ZM91.3799 17.9502L93.5175 23.5753H89.2799L91.3799 17.9502Z" fill="black"/>
<path d="M101.749 15.3267H99.3488V28.7895H101.749V15.3267Z" fill="black"/>
<path d="M34.042 20.2324C34.6092 18.53 34.4139 16.6651 33.5069 15.1166C32.1428 12.7416 29.4005 11.5197 26.7223 12.0947C25.5309 10.7525 23.8192 9.9892 22.0246 10.0001C19.287 9.99389 16.8581 11.7564 16.0159 14.3611C14.2572 14.7213 12.7392 15.8221 11.8509 17.3823C10.4767 19.7511 10.79 22.7371 12.626 24.7684C12.0588 26.4708 12.2541 28.3357 13.1611 29.8841C14.5252 32.2592 17.2675 33.4811 19.9456 32.9061C21.1363 34.2483 22.8488 35.0116 24.6434 34.9999C27.3825 35.0069 29.8123 33.2428 30.6545 30.6357C32.4131 30.2756 33.9311 29.1747 34.8194 27.6146C36.1921 25.2458 35.878 22.2621 34.0428 20.2308L34.042 20.2324ZM24.645 33.3662C23.5488 33.3678 22.4871 32.9842 21.6457 32.2818C21.684 32.2615 21.7504 32.2248 21.7933 32.1982L26.7716 29.3232C27.0263 29.1786 27.1825 28.9076 27.181 28.6146V21.5965L29.2849 22.8113C29.3076 22.8223 29.3224 22.8441 29.3255 22.8691V28.681C29.3224 31.2654 27.2294 33.3608 24.645 33.3662ZM14.5791 29.0669C14.0299 28.1185 13.8322 27.0067 14.0205 25.9278C14.0572 25.9497 14.1221 25.9895 14.1682 26.0161L19.1464 28.8911C19.3988 29.0388 19.7113 29.0388 19.9644 28.8911L26.0419 25.3817V27.8114C26.0434 27.8364 26.0317 27.8607 26.0122 27.8763L20.98 30.7818C18.7386 32.0725 15.8752 31.3053 14.5791 29.0669ZM13.2689 18.2003C13.8158 17.2503 14.6791 16.5237 15.7073 16.1463C15.7073 16.1893 15.7049 16.2651 15.7049 16.3182V22.0691C15.7034 22.3613 15.8596 22.6324 16.1135 22.777L22.191 26.2856L20.0871 27.5005C20.066 27.5146 20.0394 27.5169 20.016 27.5067L14.983 24.5989C12.7463 23.3035 11.9791 20.4417 13.2682 18.2011L13.2689 18.2003ZM30.5552 22.223L24.4778 18.7136L26.5817 17.4995C26.6028 17.4854 26.6294 17.4831 26.6528 17.4932L31.6857 20.3988C33.9264 21.6933 34.6944 24.5598 33.3998 26.8005C32.8522 27.7489 31.9897 28.4755 30.9623 28.8536V22.9309C30.9646 22.6387 30.8084 22.3683 30.5552 22.223ZM32.649 19.0714C32.6123 19.0487 32.5475 19.0097 32.5014 18.9831L27.5231 16.1081C27.2708 15.9604 26.9583 15.9604 26.7052 16.1081L20.6277 19.6175V17.1878C20.6261 17.1628 20.6378 17.1385 20.6574 17.1229L25.6895 14.2197C27.931 12.9267 30.7967 13.6963 32.0889 15.9385C32.635 16.8854 32.8326 17.994 32.6475 19.0714H32.649ZM19.4839 23.402L17.3792 22.1871C17.3565 22.1762 17.3417 22.1543 17.3386 22.1293V16.3174C17.3401 13.7299 19.4394 11.633 22.0269 11.6345C23.1215 11.6345 24.1809 12.0189 25.0223 12.7189C24.984 12.7392 24.9184 12.776 24.8747 12.8025L19.8964 15.6776C19.6417 15.8221 19.4855 16.0924 19.487 16.3854L19.4839 23.4004V23.402ZM20.6269 20.9378L23.334 19.3745L26.0411 20.9371V24.0629L23.334 25.6254L20.6269 24.0629V20.9378Z" fill="black"/>
</g>
<defs>
<clipPath id="clip0_4237_58">
<rect width="112" height="44" fill="white"/>
</clipPath>
</defs>
</svg>
