<svg width="112" height="44" viewBox="0 0 112 44" fill="none" xmlns="http://www.w3.org/2000/svg">
<g clip-path="url(#clip0_4237_68)">
<g clip-path="url(#clip1_4237_68)">
<path fill-rule="evenodd" clip-rule="evenodd" d="M103.479 27.6522C103.54 28.3416 104.091 29.219 105.047 29.219H105.606C105.822 29.219 106 29.0414 106 28.8246V16.5318H105.997C105.986 16.3247 105.815 16.1588 105.606 16.1588H103.874C103.664 16.1588 103.493 16.3247 103.482 16.5318H103.479V17.5307C102.418 16.2226 100.745 15.6797 99.0676 15.6797C95.2539 15.6797 92.1625 18.7735 92.1625 22.5902C92.1625 26.4071 95.2539 29.501 99.0676 29.501C100.745 29.501 102.574 28.85 103.479 27.6506V27.6522ZM99.0743 27.0824C96.6489 27.0824 94.6825 25.0714 94.6825 22.5902C94.6825 20.1095 96.6489 18.0984 99.0743 18.0984C101.5 18.0984 103.466 20.1095 103.466 22.5902C103.466 25.0714 101.5 27.0824 99.0743 27.0824Z" fill="#0D0E10"/>
<path fill-rule="evenodd" clip-rule="evenodd" d="M89.9726 28.0751L89.9718 21.7141C89.9718 18.1284 87.7116 15.7095 84.1072 15.7095C82.3866 15.7095 80.9761 16.7052 80.478 17.5605C80.3703 16.8917 80.0155 16.1887 78.9152 16.1887H78.3544C78.1375 16.1887 77.9603 16.3664 77.9603 16.5833V27.6831C77.9603 27.6834 77.9603 27.6843 77.9603 27.6848V28.8771H77.9625C77.9739 29.0839 78.1452 29.25 78.3546 29.25H80.0866C80.1131 29.25 80.1391 29.2468 80.1642 29.2419C80.1757 29.2397 80.1864 29.2352 80.1975 29.232C80.2104 29.2281 80.2238 29.225 80.236 29.22C80.2515 29.2136 80.2654 29.205 80.2798 29.197C80.2868 29.1927 80.2941 29.1897 80.3009 29.1851C80.3182 29.174 80.3341 29.1606 80.3494 29.1469C80.3519 29.1443 80.3549 29.1427 80.3574 29.1404C80.3746 29.1237 80.3903 29.1053 80.4043 29.0862C80.4477 29.0266 80.4741 28.9546 80.4784 28.8771H80.4806V21.6155C80.4806 19.6897 82.0407 18.1284 83.9652 18.1284C85.8895 18.1284 87.4496 19.6897 87.4496 21.6155L87.4512 27.6852L87.4516 27.6831C87.4516 27.6885 87.4525 27.694 87.4525 27.6998V28.8771H87.4548C87.4662 29.0839 87.6373 29.25 87.8467 29.25H89.5788C89.6054 29.25 89.6313 29.2468 89.6564 29.2419C89.6666 29.24 89.6761 29.2359 89.6861 29.2331C89.7003 29.229 89.7148 29.2254 89.7285 29.22C89.7426 29.2141 89.7555 29.2059 89.7689 29.1984C89.7771 29.1938 89.7857 29.1904 89.7936 29.1851C89.8095 29.1747 89.8242 29.162 89.8385 29.1494C89.8422 29.146 89.8463 29.1435 89.8498 29.14C89.8662 29.1242 89.8808 29.1071 89.8942 29.0892C89.8951 29.0878 89.8962 29.0867 89.8972 29.0854C89.9399 29.0263 89.966 28.9551 89.9705 28.8782C89.9705 28.8777 89.9707 28.8771 89.9707 28.8771H89.973L89.9726 28.0751Z" fill="#0D0E10"/>
<path fill-rule="evenodd" clip-rule="evenodd" d="M71.9345 27.6522C71.9951 28.3416 72.5465 29.219 73.5017 29.219H74.0607C74.2774 29.219 74.4547 29.0414 74.4547 28.8246V16.5318H74.4525C74.4412 16.3247 74.2699 16.1588 74.0607 16.1588H72.3287C72.1193 16.1588 71.9482 16.3247 71.9365 16.5318H71.9345V17.5307C70.8732 16.2226 69.2002 15.6797 67.5224 15.6797C63.7089 15.6797 60.6176 18.7735 60.6176 22.5902C60.6176 26.4071 63.7089 29.501 67.5224 29.501C69.2002 29.501 71.0287 28.85 71.9343 27.6506L71.9345 27.6522ZM67.5291 27.0824C65.1039 27.0824 63.1376 25.0714 63.1376 22.5902C63.1376 20.1095 65.1039 18.0984 67.5291 18.0984C69.9546 18.0984 71.9205 20.1095 71.9205 22.5902C71.9205 25.0714 69.9546 27.0824 67.5291 27.0824Z" fill="#0D0E10"/>
<path fill-rule="evenodd" clip-rule="evenodd" d="M50.3755 25.8917C51.5317 26.6933 52.7938 27.0826 54.0065 27.0826C55.1619 27.0826 56.3564 26.4832 56.3564 25.4398C56.3564 24.0468 53.7536 23.8301 52.1183 23.2738C50.4827 22.7177 49.074 21.5678 49.074 19.7057C49.074 16.8565 51.6108 15.6797 53.9784 15.6797C55.4786 15.6797 57.0265 16.1748 58.03 16.884C58.3756 17.146 58.1651 17.4469 58.1651 17.4469L57.2072 18.8161C57.0995 18.9703 56.9113 19.1036 56.641 18.9366C56.3708 18.7698 55.4229 18.0984 53.9784 18.0984C52.5339 18.0984 51.6637 18.7661 51.6637 19.5936C51.6637 20.5859 52.7947 20.8981 54.1193 21.2363C56.4278 21.859 58.9461 22.6076 58.9461 25.4398C58.9461 27.9503 56.5997 29.5017 54.0065 29.5017C52.0414 29.5017 50.3683 28.941 48.965 27.9105C48.6727 27.6177 48.8769 27.3459 48.8769 27.3459L49.8301 25.9836C50.024 25.7289 50.2686 25.8177 50.3755 25.8917Z" fill="#0D0E10"/>
<path fill-rule="evenodd" clip-rule="evenodd" d="M43.7173 27.6522C43.7779 28.3416 44.3293 29.219 45.2846 29.219H45.8436C46.0602 29.219 46.2377 29.0414 46.2377 28.8246V16.5318H46.2353C46.224 16.3247 46.0529 16.1588 45.8436 16.1588H44.1116C43.9022 16.1588 43.7311 16.3247 43.7194 16.5318H43.7173V17.5307C42.6562 16.2226 40.9831 15.6797 39.3054 15.6797C35.4919 15.6797 32.4004 18.7735 32.4004 22.5902C32.4004 26.4071 35.4919 29.501 39.3054 29.501C40.9831 29.501 42.8115 28.85 43.7171 27.6506L43.7173 27.6522ZM39.3122 27.0824C36.8868 27.0824 34.9205 25.0714 34.9205 22.5902C34.9205 20.1095 36.8868 18.0984 39.3122 18.0984C41.7375 18.0984 43.7035 20.1095 43.7035 22.5902C43.7035 25.0714 41.7375 27.0824 39.3122 27.0824Z" fill="#0D0E10"/>
<path fill-rule="evenodd" clip-rule="evenodd" d="M22.7197 23.0604C20.1533 23.0604 18.0729 25.1409 18.0729 27.7074C18.0729 30.2738 20.1533 32.3543 22.7197 32.3543C25.286 32.3543 27.3664 30.2738 27.3664 27.7074C27.3664 25.1409 25.286 23.0604 22.7197 23.0604ZM10.6468 23.0608C8.08047 23.0608 6 25.1409 6 27.7074C6 30.2738 8.08047 32.3543 10.6468 32.3543C13.2133 32.3543 15.2938 30.2738 15.2938 27.7074C15.2938 25.1409 13.2133 23.0608 10.6468 23.0608ZM21.33 17.2518C21.33 19.8183 19.2496 21.899 16.6833 21.899C14.1168 21.899 12.0364 19.8183 12.0364 17.2518C12.0364 14.6857 14.1168 12.605 16.6833 12.605C19.2496 12.605 21.33 14.6857 21.33 17.2518Z" fill="#F06A6A"/>
</g>
</g>
<defs>
<clipPath id="clip0_4237_68">
<rect width="112" height="44" fill="white"/>
</clipPath>
<clipPath id="clip1_4237_68">
<rect width="112" height="44" fill="white"/>
</clipPath>
</defs>
</svg>
