<svg width="112" height="44" viewBox="0 0 112 44" fill="none" xmlns="http://www.w3.org/2000/svg">
<g clip-path="url(#clip0_4237_36)">
<g clip-path="url(#clip1_4237_36)">
<path d="M51.7096 7.16598C53.4696 5.33217 55.9199 4.19479 58.6298 4.19479C62.2322 4.19479 65.3751 6.20352 67.0488 9.18553C68.5033 8.53569 70.1133 8.17417 71.8071 8.17417C78.3044 8.17417 83.5719 13.4876 83.5719 20.0416C83.5719 26.5964 78.3044 31.9098 71.8071 31.9098C71.0289 31.9103 70.2526 31.8329 69.4897 31.6789C68.0159 34.308 65.2072 36.0843 61.9834 36.0843C60.6339 36.0843 59.3574 35.7727 58.2209 35.2184C56.7267 38.7329 53.2457 41.1971 49.1885 41.1971C44.9635 41.1971 41.3626 38.5238 39.9805 34.7745C39.3765 34.9027 38.7507 34.9696 38.1085 34.9696C33.0781 34.9696 29 30.8495 29 25.7663C29 22.3598 30.8323 19.3855 33.5547 17.7942C32.9942 16.5046 32.6824 15.0812 32.6824 13.5847C32.6824 7.73885 37.4283 3 43.282 3C46.7188 3 49.7731 4.63404 51.7096 7.16598Z" fill="#00A1E0"/>
<path d="M36.9042 22.8085C36.87 22.8979 36.9166 22.9166 36.9275 22.9321C37.0301 23.0067 37.1343 23.0604 37.2393 23.1202C37.7958 23.4156 38.3214 23.5018 38.871 23.5018C39.9904 23.5018 40.6854 22.9064 40.6854 21.9479V21.9292C40.6854 21.043 39.901 20.7212 39.1648 20.4887L39.0692 20.4577C38.5142 20.2773 38.0353 20.1219 38.0353 19.7565V19.7371C38.0353 19.4246 38.3152 19.1944 38.749 19.1944C39.2309 19.1944 39.8031 19.3546 40.1716 19.5582C40.1716 19.5582 40.2796 19.6282 40.3193 19.5233C40.341 19.4673 40.5276 18.9651 40.5471 18.9107C40.568 18.8516 40.5307 18.808 40.4926 18.7847C40.0721 18.529 39.4906 18.354 38.8889 18.354L38.777 18.3548C37.7524 18.3548 37.0372 18.9736 37.0372 19.8606V19.8793C37.0372 20.8144 37.8263 21.1176 38.5656 21.3291L38.6845 21.3656C39.2232 21.5312 39.6873 21.6734 39.6873 22.0528V22.0715C39.6873 22.4182 39.3857 22.6763 38.8991 22.6763C38.7102 22.6763 38.1077 22.6724 37.457 22.2611C37.3785 22.2152 37.3327 22.1818 37.272 22.1453C37.2402 22.1251 37.1601 22.0901 37.1251 22.1958L36.9042 22.8085ZM53.292 22.8085C53.2578 22.8979 53.3045 22.9166 53.3154 22.9321C53.4179 23.0067 53.5222 23.0604 53.6271 23.1202C54.1836 23.4156 54.7093 23.5018 55.2588 23.5018C56.3782 23.5018 57.0732 22.9064 57.0732 21.9479V21.9292C57.0732 21.043 56.2888 20.7212 55.5526 20.4887L55.457 20.4577C54.902 20.2773 54.4231 20.1219 54.4231 19.7565V19.7371C54.4231 19.4246 54.7029 19.1944 55.1367 19.1944C55.6187 19.1944 56.1908 19.3546 56.5594 19.5582C56.5594 19.5582 56.6674 19.6282 56.707 19.5233C56.7288 19.4673 56.9154 18.9651 56.9348 18.9107C56.9558 18.8516 56.9185 18.808 56.8804 18.7847C56.4598 18.529 55.8783 18.354 55.2767 18.354L55.1647 18.3548C54.1401 18.3548 53.4249 18.9736 53.4249 19.8606V19.8793C53.4249 20.8144 54.214 21.1176 54.9533 21.3291L55.0722 21.3656C55.6109 21.5312 56.0759 21.6734 56.0759 22.0528V22.0715C56.0759 22.4182 55.7734 22.6763 55.2868 22.6763C55.0979 22.6763 54.4955 22.6724 53.8448 22.2611C53.7662 22.2152 53.7196 22.1834 53.6606 22.1453C53.6403 22.1321 53.5455 22.0955 53.5128 22.1958L53.292 22.8085ZM64.4796 20.9309C64.4796 21.4728 64.3785 21.8995 64.1795 22.2012C63.9828 22.4997 63.6851 22.6451 63.2701 22.6451C62.8542 22.6451 62.558 22.5005 62.3644 22.2012C62.1685 21.9003 62.069 21.4728 62.069 20.9309C62.069 20.3899 62.1685 19.9639 62.3644 19.6654C62.558 19.37 62.8542 19.2262 63.2701 19.2262C63.6852 19.2262 63.9829 19.37 64.1804 19.6654C64.3786 19.9638 64.4796 20.3899 64.4796 20.9309ZM65.414 19.9266C65.3223 19.6164 65.1793 19.3427 64.9888 19.115C64.7983 18.8864 64.5574 18.703 64.2713 18.5693C63.9859 18.4364 63.6486 18.3687 63.2701 18.3687C62.8907 18.3687 62.5533 18.4364 62.268 18.5693C61.9819 18.703 61.741 18.8865 61.5497 19.115C61.36 19.3435 61.217 19.6172 61.1245 19.9266C61.0335 20.2352 60.9877 20.5725 60.9877 20.9309C60.9877 21.2893 61.0335 21.6275 61.1245 21.9353C61.217 22.2447 61.3593 22.5184 61.5505 22.7469C61.741 22.9755 61.9827 23.1581 62.268 23.2879C62.5541 23.4178 62.8907 23.4838 63.2701 23.4838C63.6487 23.4838 63.9853 23.4178 64.2713 23.2879C64.5566 23.1581 64.7983 22.9754 64.9889 22.7469C65.1793 22.5191 65.3223 22.2455 65.4141 21.9353C65.5059 21.6267 65.5517 21.2885 65.5517 20.9309C65.5517 20.5734 65.5058 20.2352 65.414 19.9266ZM73.0873 22.5004C73.0562 22.4094 72.9683 22.4436 72.9683 22.4436C72.8323 22.4957 72.6877 22.5439 72.5338 22.568C72.3775 22.592 72.2057 22.6045 72.0215 22.6045C71.5691 22.6045 71.2099 22.47 70.9526 22.2042C70.6945 21.9383 70.5499 21.5085 70.5514 20.927C70.553 20.3976 70.6805 19.9995 70.9099 19.6964C71.1376 19.3948 71.4844 19.24 71.9469 19.24C72.3325 19.24 72.6263 19.2843 72.9341 19.3815C72.9341 19.3815 73.0079 19.4134 73.0429 19.317C73.1245 19.09 73.1852 18.9275 73.2722 18.678C73.2971 18.6072 73.2365 18.5769 73.2147 18.5683C73.0934 18.5209 72.8074 18.444 72.5913 18.4113C72.3891 18.3803 72.1528 18.3639 71.8901 18.3639C71.4974 18.3639 71.1476 18.4308 70.8484 18.5645C70.5499 18.6974 70.2965 18.8809 70.0959 19.1095C69.8953 19.338 69.743 19.6116 69.6412 19.921C69.5401 20.2296 69.4888 20.5685 69.4888 20.927C69.4888 21.702 69.6979 22.3285 70.1107 22.7872C70.5242 23.2474 71.1454 23.4814 71.9555 23.4814C72.4343 23.4814 72.9256 23.3843 73.2786 23.2451C73.2786 23.2451 73.3462 23.2124 73.3167 23.134L73.0873 22.5004ZM74.7222 20.4119C74.7665 20.1111 74.8497 19.8607 74.978 19.6656C75.1715 19.3694 75.4669 19.207 75.8821 19.207C76.2972 19.207 76.5716 19.3702 76.7683 19.6656C76.8989 19.8607 76.9557 20.122 76.9782 20.4119H74.7222ZM77.8682 19.7503C77.789 19.451 77.5923 19.1486 77.4632 19.0102C77.2595 18.791 77.0606 18.6379 76.8631 18.5523C76.605 18.4419 76.2956 18.3689 75.9567 18.3689C75.5618 18.3689 75.2034 18.435 74.9127 18.5718C74.6212 18.7086 74.3764 18.8952 74.1843 19.1277C73.9922 19.3593 73.8477 19.6353 73.7559 19.9485C73.6634 20.2603 73.6168 20.6 73.6168 20.9583C73.6168 21.3229 73.665 21.6627 73.7606 21.9681C73.857 22.276 74.0109 22.5473 74.2192 22.7719C74.4268 22.9982 74.6942 23.1754 75.0145 23.2989C75.3325 23.4218 75.7188 23.4856 76.1627 23.4847C77.0762 23.4816 77.5573 23.278 77.7555 23.1683C77.7906 23.1489 77.824 23.1147 77.7819 23.0168L77.5752 22.4376C77.5441 22.3513 77.4562 22.3832 77.4562 22.3832C77.23 22.4672 76.9082 22.618 76.158 22.6164C75.6675 22.6157 75.3036 22.4711 75.0758 22.2448C74.8419 22.0132 74.7276 21.6727 74.7074 21.1923L77.8705 21.1954C77.8705 21.1954 77.9537 21.1939 77.9623 21.113C77.9654 21.0789 78.0712 20.4632 77.8682 19.7503ZM49.3899 20.4119C49.435 20.1111 49.5174 19.8607 49.6457 19.6656C49.8392 19.3694 50.1347 19.207 50.5498 19.207C50.9649 19.207 51.2393 19.3702 51.4367 19.6656C51.5665 19.8607 51.6233 20.122 51.6459 20.4119H49.3899ZM52.5352 19.7503C52.4559 19.451 52.26 19.1486 52.131 19.0102C51.9273 18.791 51.7283 18.6379 51.5309 18.5523C51.2728 18.4419 50.9634 18.3689 50.6244 18.3689C50.2303 18.3689 49.8712 18.435 49.5804 18.5718C49.2889 18.7086 49.0441 18.8952 48.852 19.1277C48.66 19.3593 48.5154 19.6353 48.4237 19.9485C48.332 20.2603 48.2846 20.6 48.2846 20.9583C48.2846 21.3229 48.3328 21.6627 48.4284 21.9681C48.5248 22.276 48.6788 22.5473 48.8871 22.7719C49.0946 22.9982 49.362 23.1754 49.6823 23.2989C50.0003 23.4218 50.3866 23.4856 50.8305 23.4847C51.7439 23.4816 52.2251 23.278 52.4234 23.1683C52.4584 23.1489 52.4917 23.1147 52.4498 23.0168L52.2438 22.4376C52.2119 22.3513 52.1241 22.3832 52.1241 22.3832C51.8979 22.4672 51.5768 22.618 50.8251 22.6164C50.3354 22.6157 49.9716 22.4711 49.7438 22.2448C49.5097 22.0132 49.3955 21.6727 49.3753 21.1923L52.5384 21.1954C52.5384 21.1954 52.6215 21.1939 52.6301 21.113C52.6331 21.0789 52.7388 20.4632 52.5352 19.7503ZM42.5528 22.483C42.4292 22.3843 42.4121 22.3594 42.3702 22.2957C42.3079 22.1985 42.2761 22.0601 42.2761 21.8844C42.2761 21.6061 42.3678 21.4064 42.5583 21.2719C42.556 21.2727 42.8304 21.0348 43.4756 21.0433C43.9288 21.0495 44.3338 21.1164 44.3338 21.1164V22.5546C44.3338 22.5546 43.9326 22.6408 43.4802 22.668C42.8366 22.7069 42.5505 22.4823 42.5528 22.483ZM43.8114 20.2605C43.6831 20.2512 43.5167 20.2457 43.3177 20.2457C43.0464 20.2457 42.7844 20.2799 42.5388 20.346C42.2916 20.412 42.0693 20.5155 41.878 20.6522C41.6871 20.7885 41.5301 20.967 41.4194 21.1739C41.3075 21.3822 41.2507 21.6279 41.2507 21.9031C41.2507 22.1829 41.2989 22.4262 41.3953 22.6253C41.4917 22.8251 41.6308 22.9914 41.8081 23.1197C41.9837 23.248 42.2007 23.342 42.4525 23.3988C42.7005 23.4555 42.9819 23.4842 43.2897 23.4842C43.6139 23.4842 43.9373 23.4579 44.2506 23.4042C44.5607 23.3513 44.9417 23.2743 45.0474 23.2503C45.1215 23.2324 45.1953 23.2135 45.2689 23.1935C45.3475 23.1741 45.3412 23.0901 45.3412 23.0901L45.3397 20.1975C45.3397 19.5631 45.1702 19.0928 44.8367 18.8013C44.5047 18.5106 44.0158 18.3636 43.3838 18.3636C43.1467 18.3636 42.765 18.3963 42.5364 18.4422C42.5364 18.4422 41.8454 18.5759 41.5608 18.7982C41.5608 18.7982 41.4986 18.8371 41.5328 18.9242L41.7568 19.5259C41.7847 19.6036 41.8602 19.5772 41.8602 19.5772C41.8602 19.5772 41.8843 19.5678 41.9123 19.5515C42.521 19.2204 43.2906 19.2305 43.2906 19.2305C43.6326 19.2305 43.8954 19.2989 44.0726 19.4349C44.2452 19.567 44.333 19.7668 44.333 20.1881V20.3219C44.0609 20.283 43.8114 20.2605 43.8114 20.2605ZM69.3236 18.6307C69.3476 18.5591 69.2971 18.5249 69.2761 18.5172C69.2225 18.4962 68.9535 18.4394 68.7459 18.4262C68.3487 18.4021 68.128 18.469 67.9305 18.5576C67.7346 18.6462 67.5169 18.7892 67.3956 18.9517V18.5669C67.3956 18.5133 67.3575 18.4705 67.3047 18.4705H66.4938C66.441 18.4705 66.4029 18.5132 66.4029 18.5669V23.2848C66.4029 23.3377 66.4465 23.3812 66.4993 23.3812H67.3303C67.3558 23.3811 67.3801 23.3708 67.3981 23.3528C67.416 23.3347 67.426 23.3103 67.4259 23.2848V20.9278C67.4259 20.6114 67.461 20.2959 67.5309 20.0976C67.5993 19.9017 67.6926 19.7447 67.8077 19.6319C67.9235 19.52 68.0549 19.4415 68.1987 19.3972C68.3456 19.3521 68.508 19.3373 68.6231 19.3373C68.7887 19.3373 68.9706 19.38 68.9706 19.38C69.0312 19.387 69.0654 19.3497 69.0856 19.2945C69.1401 19.15 69.294 18.7169 69.3236 18.6307Z" fill="white"/>
<path d="M61.5235 16.444C61.4225 16.4129 61.3308 16.3919 61.211 16.3694C61.0897 16.3476 60.9451 16.3367 60.7812 16.3367C60.2089 16.3367 59.7581 16.4984 59.4417 16.8171C59.1268 17.1343 58.913 17.617 58.8058 18.2522L58.7669 18.4659H58.0486C58.0486 18.4659 57.9616 18.4628 57.9429 18.5577L57.8255 19.2161C57.817 19.2783 57.8442 19.318 57.9281 19.318H58.627L57.918 23.2764C57.8628 23.5951 57.799 23.8571 57.7283 24.056C57.6591 24.252 57.5915 24.3989 57.5076 24.5062C57.4267 24.6088 57.3505 24.685 57.2183 24.7293C57.1095 24.7658 56.9836 24.7829 56.846 24.7829C56.7698 24.7829 56.668 24.7704 56.5926 24.7549C56.5179 24.7401 56.4783 24.7238 56.4215 24.6997C56.4215 24.6997 56.3399 24.6686 56.3072 24.7502C56.2816 24.8179 56.095 25.3301 56.0725 25.3931C56.0507 25.4561 56.0818 25.5051 56.1214 25.5198C56.2147 25.5525 56.2839 25.5742 56.4106 25.6045C56.5863 25.6458 56.7347 25.6481 56.8739 25.6481C57.1646 25.6481 57.4305 25.6069 57.6505 25.5276C57.8713 25.4475 58.064 25.3084 58.2351 25.1203C58.4193 24.9166 58.5351 24.7036 58.6456 24.4121C58.7552 24.1244 58.8493 23.7668 58.9239 23.3502L59.6367 19.318H60.6784C60.6784 19.318 60.7662 19.3211 60.7842 19.2255L60.9023 18.5678C60.9101 18.5049 60.8836 18.466 60.7989 18.466H59.7875C59.793 18.4435 59.8388 18.0874 59.9547 17.7524C60.0044 17.6102 60.0977 17.4943 60.1762 17.415C60.254 17.3372 60.3434 17.2821 60.4414 17.2502C60.5416 17.2175 60.656 17.202 60.7811 17.202C60.8759 17.202 60.9699 17.2129 61.0407 17.2276C61.1386 17.2486 61.1767 17.2595 61.2024 17.2673C61.3058 17.2984 61.3198 17.2681 61.34 17.2184L61.5818 16.5545C61.6067 16.4828 61.5453 16.4525 61.5235 16.444ZM47.3927 23.2849C47.3927 23.3378 47.3547 23.3806 47.3018 23.3806H46.463C46.4101 23.3806 46.3728 23.3378 46.3728 23.2849V16.5342C46.3728 16.4814 46.4101 16.4386 46.463 16.4386H47.3018C47.3547 16.4386 47.3927 16.4814 47.3927 16.5342V23.2849Z" fill="white"/>
</g>
</g>
<defs>
<clipPath id="clip0_4237_36">
<rect width="112" height="44" fill="white"/>
</clipPath>
<clipPath id="clip1_4237_36">
<rect width="112" height="44" fill="white"/>
</clipPath>
</defs>
</svg>
