<svg width="112" height="44" viewBox="0 0 112 44" fill="none" xmlns="http://www.w3.org/2000/svg">
<g clip-path="url(#clip0_4237_85)">
<g clip-path="url(#clip1_4237_85)">
<path d="M99.2674 31.5885C98.8557 31.5885 98.5273 31.2601 98.5273 30.8485C98.5273 30.4461 98.8557 30.1085 99.2674 30.1085C99.6698 30.1085 100.007 30.4369 100.007 30.8485C100.007 31.2509 99.6698 31.5885 99.2674 31.5885ZM99.2674 30.2518C98.939 30.2518 98.6707 30.5201 98.6707 30.8485C98.6707 31.1769 98.939 31.4451 99.2674 31.4451C99.5958 31.4451 99.864 31.1769 99.864 30.8485C99.864 30.5201 99.5958 30.2518 99.2674 30.2518ZM99.642 31.237H99.4709L99.3229 30.9595H99.1286V31.237H98.9714V30.423H99.3599C99.531 30.423 99.6374 30.534 99.6374 30.6912C99.6374 30.8115 99.5634 30.8994 99.4662 30.9364L99.642 31.237ZM99.3506 30.8115C99.4107 30.8115 99.4709 30.7745 99.4709 30.6912C99.4709 30.5941 99.42 30.571 99.3506 30.571H99.1055V30.8161H99.3506V30.8115ZM21.994 30.0345H23.8903V35.2008H27.1835V36.8566H21.994V30.0345ZM29.1446 33.4617V33.4386C29.1446 31.4821 30.7264 29.8865 32.8309 29.8865C34.9353 29.8865 36.4894 31.4544 36.4894 33.4109V33.434C36.4894 35.3905 34.9076 36.9861 32.8031 36.9861C30.6987 36.9861 29.1446 35.4182 29.1446 33.4617ZM34.5653 33.4617V33.4386C34.5653 32.4534 33.8623 31.6024 32.8124 31.6024C31.781 31.6024 31.0872 32.4396 31.0872 33.4247V33.4479C31.0872 34.433 31.7902 35.2841 32.8262 35.2841C33.8715 35.2841 34.5653 34.4469 34.5653 33.4617ZM38.8113 33.8641V30.0345H40.7307V33.8271C40.7307 34.8123 41.2303 35.2748 41.9842 35.2748C42.7381 35.2748 43.2376 34.8262 43.2376 33.878V30.0345H45.1571V33.8179C45.1571 36.0195 43.9036 36.9815 41.961 36.9815C40.0277 36.9769 38.8113 36.001 38.8113 33.8641ZM48.0524 30.0345H50.6796C53.1124 30.0345 54.5324 31.4313 54.5324 33.4016V33.4247C54.5324 35.3951 53.0985 36.852 50.6426 36.852H48.0524V30.0345ZM50.7119 35.1777C51.8405 35.1777 52.5944 34.5579 52.5944 33.4525V33.4294C52.5944 32.3332 51.8405 31.7042 50.7119 31.7042H49.9441V35.1684H50.7119V35.1777ZM57.2797 30.0345H62.7375V31.6903H59.1622V32.8558H62.3952V34.4238H59.1622V36.8566H57.2797V30.0345ZM65.3646 30.0345H67.247V35.2008H70.5541V36.8566H65.36V30.0345H65.3646ZM75.4938 29.9836H77.3161L80.2208 36.852H78.1903L77.6908 35.6356H75.0636L74.578 36.852H72.5938L75.4938 29.9836ZM77.1589 34.1648L76.405 32.2314L75.6372 34.1648H77.1589ZM82.6582 30.0345H85.882C86.9273 30.0345 87.6442 30.3027 88.1067 30.7745C88.5091 31.163 88.7126 31.6857 88.7126 32.3656V32.3887C88.7126 33.434 88.153 34.1278 87.3158 34.4793L88.9439 36.8613H86.7562L85.3825 34.7938H84.5546V36.8613H82.6582V30.0345ZM85.7941 33.3045C86.437 33.3045 86.8024 32.99 86.8024 32.4997V32.4766C86.8024 31.94 86.4139 31.6718 85.7803 31.6718H84.5407V33.2999L85.7941 33.3045ZM91.4369 30.0345H96.9224V31.6394H93.3101V32.6708H96.5801V34.1648H93.3101V35.2471H96.9686V36.852H91.4369V30.0345ZM17.8591 34.2619C17.5908 34.8586 17.0312 35.2841 16.3004 35.2841C15.269 35.2841 14.5613 34.4192 14.5613 33.4479V33.4247C14.5613 32.4396 15.2551 31.6024 16.2865 31.6024C17.0635 31.6024 17.6602 32.0788 17.9053 32.731H19.8988C19.5843 31.1029 18.1458 29.8957 16.3004 29.8957C14.2005 29.9003 12.6187 31.4914 12.6187 33.4479V33.471C12.6187 35.4321 14.1774 37 16.2773 37C18.0765 37 19.4871 35.8345 19.8525 34.2758L17.8591 34.2619Z" fill="#404041"/>
<path d="M94.6839 19.1518L89.4667 16.1593L88.5648 15.7708L67.2241 15.9188V26.7511H94.6793L94.6839 19.1518Z" fill="white"/>
<path d="M85.1837 25.7516C85.4381 24.8773 85.341 24.0725 84.9155 23.476C84.527 22.9302 83.8702 22.6111 83.0793 22.5741L68.1121 22.3798C68.015 22.3798 67.9317 22.3288 67.8808 22.2596C67.83 22.1855 67.8207 22.0884 67.8438 21.9913C67.8947 21.8433 68.0381 21.7368 68.1954 21.7229L83.2967 21.5287C85.082 21.4454 87.0292 19.9978 87.7091 18.2218L88.574 15.9739C88.611 15.8768 88.6249 15.7796 88.5971 15.6825C87.6305 11.2839 83.7037 8 79.0091 8C74.6799 8 71.0075 10.7983 69.6939 14.6742C68.8429 14.0406 67.7606 13.7029 66.595 13.8093C64.5137 14.0174 62.8486 15.6824 62.6451 17.7591C62.5942 18.2957 62.6312 18.8184 62.7561 19.3041C59.3658 19.4012 56.6508 22.1717 56.6508 25.5897C56.6508 25.895 56.674 26.1956 56.711 26.5009C56.7341 26.6489 56.859 26.7553 57.0023 26.7553H84.6287C84.786 26.7553 84.934 26.6442 84.9802 26.4869L85.1837 25.7516Z" fill="#F38020"/>
<path d="M89.9521 16.136C89.818 16.136 89.6746 16.136 89.5405 16.1498C89.4434 16.1498 89.3601 16.2238 89.3231 16.321L88.7403 18.3514C88.4859 19.2256 88.5831 20.0304 89.0086 20.627C89.3971 21.1728 90.0539 21.492 90.8448 21.529L94.0316 21.7232C94.1287 21.7232 94.2119 21.7741 94.2628 21.8435C94.3137 21.9175 94.323 22.0239 94.2998 22.1117C94.249 22.2597 94.1056 22.3661 93.9483 22.38L90.6274 22.5743C88.8282 22.6575 86.8949 24.1052 86.215 25.8813L85.9698 26.5011C85.919 26.6213 86.0068 26.7462 86.141 26.7462H97.5375C97.6716 26.7462 97.7919 26.6629 97.8289 26.5288C98.0231 25.8258 98.1341 25.0811 98.1341 24.318C98.1341 19.8084 94.4617 16.136 89.9521 16.136Z" fill="#FAAE40"/>
</g>
</g>
<defs>
<clipPath id="clip0_4237_85">
<rect width="112" height="44" fill="white"/>
</clipPath>
<clipPath id="clip1_4237_85">
<rect width="112" height="44" fill="white"/>
</clipPath>
</defs>
</svg>
