<svg width="112" height="44" viewBox="0 0 112 44" fill="none" xmlns="http://www.w3.org/2000/svg">
<path d="M46.2139 26.5981H43.635V36.8181H46.2139V26.5981Z" fill="#C4122E"/>
<path d="M67.0083 29.5268C66.9046 29.4729 66.0754 28.9812 64.8419 28.9812C63.1714 28.9812 62.0155 30.142 62.0155 31.7071C62.0155 33.2257 63.1232 34.4355 64.8419 34.4355C66.0542 34.4355 66.8972 33.9544 67.0083 33.8931V36.6362C66.6881 36.7269 65.8083 36.9997 64.6565 36.9997C61.7574 36.9997 59.2144 35 59.2144 31.7071C59.2144 28.6552 61.518 26.417 64.6565 26.417C65.8704 26.417 66.7657 26.7119 67.0083 26.7837V29.5268Z" fill="#C4122E"/>
<path d="M40.0892 29.5268C39.9855 29.4729 39.1563 28.9812 37.9228 28.9812C36.2523 28.9812 35.0964 30.142 35.0964 31.7071C35.0964 33.2257 36.2041 34.4355 37.9228 34.4355C39.1351 34.4355 39.9781 33.9544 40.0892 33.8931V36.6362C39.769 36.7269 38.8892 36.9997 37.7374 36.9997C34.8383 36.9997 32.2953 35 32.2953 31.7071C32.2953 28.6552 34.5989 26.417 37.7374 26.417C38.9513 26.417 39.8466 26.7119 40.0892 26.7837V29.5268Z" fill="#C4122E"/>
<path d="M75.1215 29.0189C73.5915 29.0189 72.4552 30.223 72.4552 31.7064C72.4552 33.1932 73.5915 34.3965 75.1215 34.3965C76.6499 34.3965 77.7894 33.1932 77.7894 31.7064C77.7894 30.223 76.6499 29.0189 75.1215 29.0189ZM80.5219 31.7064C80.5219 34.6301 78.2649 36.9991 75.1215 36.9991C71.9781 36.9991 69.7243 34.6301 69.7243 31.7064C69.7243 28.7877 71.9781 26.4163 75.1215 26.4163C78.2649 26.4163 80.5219 28.7877 80.5219 31.7064Z" fill="#C4122E"/>
<path d="M55.9941 28.9211C55.9557 28.9089 54.8701 28.6091 53.978 28.6091C52.9447 28.6091 52.3826 28.9554 52.3826 29.4464C52.3826 30.0688 53.1407 30.2861 53.5647 30.4201L54.2762 30.6464C55.95 31.179 56.713 32.3251 56.713 33.57C56.713 36.1375 54.4551 37.0001 52.4815 37.0001C51.1099 37.0001 49.825 36.7477 49.6984 36.7208V34.3689C49.9254 34.4261 51.007 34.7488 52.1335 34.7488C53.4168 34.7488 54.0066 34.3738 54.0066 33.7947C54.0066 33.2768 53.4961 32.9778 52.8564 32.7768C52.7004 32.7245 52.466 32.651 52.3059 32.5987C50.8698 32.1446 49.6722 31.3007 49.6722 29.6089C49.6722 27.6974 51.1034 26.4141 53.4805 26.4141C54.7361 26.4141 55.9173 26.7188 55.9941 26.7392V28.9211Z" fill="#C4122E"/>
<path d="M29.5609 15.6145C29.5609 14.9104 28.9858 14.3394 28.2808 14.3394C27.5758 14.3394 26.9999 14.9104 26.9999 15.6145V18.2972C26.9999 19.0054 27.5758 19.5772 28.2808 19.5772C28.9858 19.5772 29.5609 19.0054 29.5609 18.2972V15.6145Z" fill="#15495D"/>
<path d="M36.5939 12.0937C36.5939 11.3895 36.0188 10.8169 35.3138 10.8169C34.608 10.8169 34.0329 11.3895 34.0329 12.0937V18.298C34.0329 19.0062 34.608 19.5772 35.3138 19.5772C36.0188 19.5772 36.5939 19.0062 36.5939 18.298V12.0937Z" fill="#15495D"/>
<path d="M43.6265 7.27598C43.6265 6.57182 43.0514 6 42.3464 6C41.6407 6 41.0656 6.57182 41.0656 7.27598V20.847C41.0656 21.5552 41.6407 22.127 42.3464 22.127C43.0514 22.127 43.6265 21.5552 43.6265 20.847V7.27598Z" fill="#15495D"/>
<path d="M50.6595 12.0937C50.6595 11.3895 50.0844 10.8169 49.3794 10.8169C48.6736 10.8169 48.0985 11.3895 48.0985 12.0937V18.298C48.0985 19.0062 48.6736 19.5772 49.3794 19.5772C50.0844 19.5772 50.6595 19.0062 50.6595 18.298V12.0937Z" fill="#15495D"/>
<path d="M57.6845 15.6145C57.6845 14.9104 57.1135 14.3394 56.4118 14.3394C55.7068 14.3394 55.1317 14.9104 55.1317 15.6145V18.2972C55.1317 19.0054 55.7068 19.5772 56.4118 19.5772C57.1135 19.5772 57.6845 19.0054 57.6845 18.2972V15.6145Z" fill="#15495D"/>
<path d="M57.6877 15.6146C57.6877 14.9104 57.1126 14.3394 56.4076 14.3394C55.7026 14.3394 55.1267 14.9104 55.1267 15.6146V18.2972C55.1267 19.0055 55.7026 19.5773 56.4076 19.5773C57.1126 19.5773 57.6877 19.0055 57.6877 18.2972V15.6146Z" fill="#15495D"/>
<path d="M64.7207 12.0937C64.7207 11.3896 64.1456 10.8169 63.4406 10.8169C62.7348 10.8169 62.1597 11.3896 62.1597 12.0937V18.298C62.1597 19.0062 62.7348 19.5773 63.4406 19.5773C64.1456 19.5773 64.7207 19.0062 64.7207 18.298V12.0937Z" fill="#15495D"/>
<path d="M71.7534 7.27598C71.7534 6.57183 71.1783 6 70.4734 6C69.7676 6 69.1925 6.57183 69.1925 7.27598V20.8469C69.1925 21.5551 69.7676 22.127 70.4734 22.127C71.1783 22.127 71.7534 21.5551 71.7534 20.8469V7.27598Z" fill="#15495D"/>
<path d="M78.7864 12.0937C78.7864 11.3896 78.2113 10.8169 77.5063 10.8169C76.8005 10.8169 76.2254 11.3896 76.2254 12.0937V18.298C76.2254 19.0062 76.8005 19.5773 77.5063 19.5773C78.2113 19.5773 78.7864 19.0062 78.7864 18.298V12.0937Z" fill="#15495D"/>
<path d="M85.8115 15.6146C85.8115 14.9104 85.2405 14.3394 84.5388 14.3394C83.8338 14.3394 83.2587 14.9104 83.2587 15.6146V18.2972C83.2587 19.0055 83.8338 19.5773 84.5388 19.5773C85.2405 19.5773 85.8115 19.0055 85.8115 18.2972V15.6146Z" fill="#15495D"/>
</svg>
