<svg width="112" height="44" viewBox="0 0 112 44" fill="none" xmlns="http://www.w3.org/2000/svg">
<g clip-path="url(#clip0_4237_78)">
<g clip-path="url(#clip1_4237_78)">
<path fill-rule="evenodd" clip-rule="evenodd" d="M46.5081 32.2223L45.769 26.236C43.8121 24.8445 42.3046 23.6993 40.4927 22.3803C39.6373 16.0746 41.2173 12.6538 43.5365 9.40688C46.4211 5.73958 51.0595 3 56.6112 3C62.1631 3.05782 66.8159 5.85546 69.5558 9.52276C72.1212 13.0016 73.4984 17.3791 72.4979 22.5542L67.4972 26.236L66.7577 32.2223H58.8292C58.3363 32.614 57.6697 32.9761 56.6112 33.0052C55.5676 32.9761 54.9152 32.614 54.379 32.2223H46.5081Z" fill="#CC2229"/>
<path fill-rule="evenodd" clip-rule="evenodd" d="M56.6115 23.9166C56.1911 18.3358 56.0753 11.4505 55.7274 5.92798C55.1331 5.78296 54.2923 5.82656 53.5966 5.94244C52.9009 6.15997 52.3935 6.34836 51.7992 6.68178C52.8864 11.987 54.1475 18.7417 55.2203 24.0036C53.7563 18.8868 51.7992 12.4799 50.3499 7.37751C49.6542 7.52253 48.9729 7.91377 48.4802 8.31969C47.9584 8.72562 47.6539 9.03012 47.1755 9.75476C49.2772 14.2484 51.7992 19.974 53.9158 24.4384C51.4658 20.3796 48.4942 15.0311 46.03 11.0014C45.5518 11.4218 45.1892 11.7263 44.7108 12.5379C44.3049 13.1903 44.102 13.9585 44.0151 14.6979C46.7113 17.9884 49.9291 21.9311 52.6397 25.2067C49.8134 22.4815 46.3343 18.9737 43.5369 16.2486C43.2615 16.7993 43.0876 17.2633 43.0006 18.1763C42.8992 19.0605 43.0731 20.1185 43.2615 20.7564L48.7262 24.8152L49.3061 29.3233L55.3217 29.3666C55.7565 29.874 55.9013 30.1349 56.6118 30.1782C57.2928 30.1349 57.6845 29.7145 57.8584 29.3666H63.8592L64.4677 24.8441L69.8893 20.8143C70.0919 20.1477 70.2222 19.1183 70.1502 18.2342C70.0632 17.2775 69.8893 16.7991 69.6573 16.2917C66.8454 19.0024 63.3518 22.5105 60.5544 25.2353C63.2793 21.9884 66.4684 18.0311 69.1933 14.7119C69.0485 13.9728 68.8746 13.2187 68.4395 12.5666C67.9322 11.7548 67.6421 11.4505 67.1784 11.0157C64.6999 15.0308 61.6848 20.4232 59.235 24.4526C61.4096 19.9737 63.8736 14.2481 66.0047 9.81282C65.5409 9.1024 65.2073 8.74007 64.7435 8.36329C64.1928 7.94291 63.5115 7.55168 62.8447 7.3922C61.3227 12.4799 59.453 18.9448 57.9743 24.018C59.0032 18.7562 60.2935 12.0595 61.3227 6.76897C60.8011 6.39196 60.2937 6.20357 59.612 6.00072C58.8295 5.8557 58.0613 5.82679 57.4523 5.92821C57.0466 11.4941 57.0317 18.3649 56.6115 23.9166Z" fill="#F6D330"/>
<path fill-rule="evenodd" clip-rule="evenodd" d="M39.9999 38.5998H42.812C42.7687 39.2232 43.0732 39.368 43.2182 39.4697C43.3774 39.5275 44.5518 39.5853 45.1315 39.4839C45.3634 39.4405 45.5807 39.3535 45.5807 38.6431C45.5807 38.3389 45.5082 38.0054 45.1604 37.9327C43.9281 37.8315 42.7251 37.9618 41.4931 37.8457C40.2608 37.5706 40.0727 37.2514 39.9999 36.2803C40.0869 34.9322 40.5653 34.541 41.9424 34.4974C43.3771 34.454 44.8128 34.454 46.2476 34.4974C47.7116 34.4974 48.1608 35.063 48.1608 36.295H45.5807C45.5807 35.686 45.4649 35.4543 45.1604 35.4251C44.533 35.3817 43.9034 35.3817 43.276 35.4251C43.044 35.4251 42.7397 35.5412 42.7397 36.0919C42.7397 36.6135 42.8701 36.7441 43.2182 36.7879C44.2762 36.831 45.349 36.8457 46.3926 36.9178C48.1319 37.0194 48.19 37.7877 48.2478 38.5993C48.2767 39.7592 47.8563 40.1647 47.5521 40.3536C47.2623 40.4839 45.8561 40.6436 45.5807 40.6436H42.7978C42.1743 40.6436 41.3916 40.5711 40.7104 40.368C40.0724 40.1943 39.9999 39.3391 39.9999 38.5998ZM66.4251 40.6725H68.8891V34.5268H66.4251V40.6725ZM70.5414 40.6725H72.9767V34.5268H70.5414V40.6725ZM64.99 37.4545C64.9451 37.2623 64.8869 37.0734 64.8156 36.8893C64.3952 36.208 62.9459 36.2081 61.54 36.1789C60.4819 36.1789 58.9021 36.2081 58.4381 36.6571C58.2495 36.8602 58.1481 37.15 58.0902 37.4545C58.0177 37.8171 58.0319 38.1936 58.0319 38.3678C58.0319 38.6865 58.0611 39.9185 58.6554 40.2374C59.2061 40.6 60.8729 40.6436 61.5106 40.6436C62.1919 40.6436 64.0765 40.5711 64.3521 40.2519C64.8445 40.078 64.9606 39.4694 65.062 38.9912H62.6414C62.6414 39.4694 62.2644 39.7595 61.5106 39.7154C60.8293 39.7592 60.4381 39.5998 60.4381 38.7448L65.0618 38.759C65.062 38.3389 65.077 37.8893 64.99 37.4545ZM62.6414 37.8749H60.4381C60.4381 37.7009 60.4672 37.5557 60.5106 37.4545C60.6696 37.0633 61.0758 37.0488 61.5104 37.0197C62.1772 37.0197 62.4673 37.1791 62.5834 37.4545C62.6414 37.5706 62.6559 37.7154 62.6414 37.8749ZM49.6973 40.6725H52.1035V38.0633C52.1616 37.7012 52.2485 37.4111 53.1326 37.4111C53.9732 37.3969 54.2052 37.6284 54.2052 38.0633V40.6725H56.6113V38.0633C56.6113 37.2081 56.5971 36.7443 56.0462 36.4983C55.5533 36.1791 54.8428 36.2227 54.1763 36.2227C53.4805 36.2227 52.6978 36.3097 52.1035 36.5997V34.527H49.6973V40.6725Z" fill="#CC2229"/>
</g>
</g>
<defs>
<clipPath id="clip0_4237_78">
<rect width="112" height="44" fill="white"/>
</clipPath>
<clipPath id="clip1_4237_78">
<rect width="112" height="44" fill="white"/>
</clipPath>
</defs>
</svg>
