<svg width="274" height="45" viewBox="0 0 274 45" fill="none" xmlns="http://www.w3.org/2000/svg">
<g clip-path="url(#clip0_4237_1396)">
<g clip-path="url(#clip1_4237_1396)">
<path d="M268.73 21.3773C266.367 21.3773 264.464 19.4772 264.464 17.1123C264.464 14.7495 266.367 12.8494 268.73 12.8494C271.09 12.8494 272.992 14.7495 272.992 17.1123C272.947 19.4772 271.045 21.3773 268.73 21.3773ZM268.73 13.31C266.641 13.31 264.974 15.073 264.974 17.1102C264.974 19.1967 266.688 20.9125 268.73 20.9125C270.766 20.9125 272.483 19.1538 272.483 17.1102C272.483 15.073 270.766 13.31 268.73 13.31ZM269.841 19.3379L268.685 17.4358H267.892V19.3379H267.382V14.7495H268.867C269.659 14.7495 270.306 15.3044 270.306 16.0947C270.306 16.7908 269.841 17.2086 269.24 17.3928L270.445 19.34L269.841 19.3379ZM268.822 15.2614H267.892V16.928H268.822C269.377 16.928 269.798 16.6025 269.798 16.0927C269.796 15.6319 269.375 15.2614 268.822 15.2614Z" fill="#F5F5F3"/>
<path d="M207.726 12.9889C207.584 12.9889 207.535 13.036 206.242 13.0811C204.896 13.1261 202.437 13.1732 197.335 13.1732H194.974H193.534H191.172C186.116 13.1732 183.618 13.1261 182.269 13.0811C180.971 13.036 180.928 12.9889 180.786 12.9889C180.183 12.9889 180.183 13.3616 180.183 14.5205V19.0148C180.183 19.2462 180.183 19.8501 180.692 19.8501C181.249 19.8501 181.341 19.6639 182.224 17.8559C182.779 16.6048 183.937 14.7949 190.618 14.7048C191.309 14.7498 191.59 14.889 191.59 15.9558V38.7652C191.59 40.6653 191.59 42.0084 189.134 42.1476C188.113 42.2398 187.416 42.2828 187.416 42.979C187.416 43.7222 188.066 43.7222 188.434 43.7222C189.366 43.7222 193.348 43.5379 194.186 43.5379C195.809 43.5379 198.356 43.7222 199.983 43.7222C200.347 43.7222 201.002 43.7222 201.002 42.979C201.002 42.2398 200.306 42.1906 199.284 42.1476C196.825 42.0084 196.825 40.6633 196.825 38.6689V16.3264C196.825 15.0262 196.969 14.7949 198.401 14.7048C204.521 14.889 205.632 16.6048 206.19 17.8108C207.071 19.6188 207.165 19.803 207.722 19.803C208.233 19.803 208.233 19.2011 208.233 18.9718V14.4713C208.325 13.3616 208.325 12.9889 207.726 12.9889Z" fill="#F5F5F3"/>
<path d="M154.738 35.9356C154.275 35.9356 154.183 36.1199 153.301 37.8356C151.124 42.0065 148.11 42.0064 145.931 42.0064C141.802 42.0064 140.782 41.4515 140.782 37.9707V29.5329C140.782 28.0526 141.153 28.0526 143.517 28.0526C147.549 28.0526 148.894 28.0955 149.959 31.8999C150.191 32.8274 150.514 33.0588 150.884 33.0588C151.492 33.0588 151.492 32.3626 151.492 32.0862C151.492 31.7095 151.347 29.9977 151.347 29.623C151.347 28.5624 151.677 23.5091 151.677 22.813C151.677 22.2581 151.447 22.1168 151.122 22.1168C150.889 22.1168 150.608 22.2089 150.379 22.86C149.497 25.4563 149.035 26.523 143.611 26.523C140.785 26.523 140.785 26.1504 140.785 24.5718V17.4833C140.785 15.0263 140.967 14.7007 143.423 14.7007C150.377 14.7007 151.582 16.5577 152.141 17.8538C153.022 19.6618 153.115 19.8461 153.669 19.8461C154.179 19.8461 154.179 19.2441 154.179 19.0108V14.5184C154.179 13.4067 154.179 12.9869 153.575 12.9869C153.436 12.9869 153.391 13.034 152.092 13.079C150.749 13.1241 148.245 13.1712 143.192 13.1712H140.827C136.656 13.1712 134.568 13.1241 133.454 13.079C132.389 13.034 132.342 12.9869 132.248 12.9869C131.925 12.9869 131.275 12.9869 131.275 13.6831C131.275 14.4242 131.972 14.4713 133.038 14.5184C135.493 14.6577 135.493 16.0009 135.493 17.9972V38.7201C135.493 40.7124 135.493 42.0556 133.038 42.1949C132.015 42.287 131.275 42.3341 131.275 43.0302C131.275 43.7693 131.925 43.7693 132.295 43.7693C132.621 43.7693 133.038 43.7263 133.826 43.6773C134.615 43.6281 135.819 43.581 137.861 43.581H138.462C138.741 43.581 141.063 43.6281 143.839 43.6773C146.667 43.7203 150.096 43.7693 152.599 43.7693C154.04 43.7693 154.5 43.2145 154.545 42.2849C154.686 40.4769 155.243 37.3258 155.243 36.6788C155.297 36.3511 155.155 35.9356 154.738 35.9356Z" fill="#F5F5F3"/>
<path d="M234.798 35.9356C234.331 35.9356 234.241 36.1199 233.359 37.8356C231.18 42.0065 228.164 42.0064 225.985 42.0064C221.858 42.0064 220.841 41.4515 220.841 37.9707V29.5329C220.841 28.0526 221.213 28.0526 223.574 28.0526C227.607 28.0526 228.954 28.0955 230.017 31.8999C230.247 32.8274 230.574 33.0588 230.943 33.0588C231.546 33.0588 231.546 32.3626 231.546 32.0862C231.546 31.7095 231.407 29.9977 231.407 29.623C231.407 28.5624 231.731 23.5091 231.731 22.813C231.731 22.2581 231.503 22.1168 231.178 22.1168C230.945 22.1168 230.67 22.2089 230.441 22.86C229.556 25.4563 229.093 26.523 223.668 26.523C220.843 26.523 220.843 26.1504 220.843 24.5718V17.4833C220.843 15.0263 221.027 14.7007 223.483 14.7007C230.439 14.7007 231.638 16.5577 232.197 17.8538C233.083 19.6618 233.171 19.8461 233.727 19.8461C234.237 19.8461 234.237 19.2441 234.237 19.0108V14.5184C234.237 13.4067 234.237 12.9869 233.635 12.9869C233.496 12.9869 233.449 13.034 232.148 13.079C230.808 13.1241 228.301 13.1712 223.25 13.1712H220.886C216.712 13.1712 214.627 13.1241 213.51 13.079C212.445 13.034 212.398 12.9869 212.31 12.9869C211.983 12.9869 211.33 12.9869 211.33 13.6831C211.33 14.4242 212.028 14.4713 213.092 14.5184C215.547 14.6577 215.547 16.0009 215.547 17.9972V38.7201C215.547 40.7124 215.547 42.0556 213.092 42.1949C212.073 42.287 211.33 42.3341 211.33 43.0302C211.33 43.7693 211.981 43.7693 212.349 43.7693C212.677 43.7693 213.092 43.7263 213.882 43.6773C214.667 43.6302 215.873 43.581 217.915 43.581H218.523C218.799 43.581 221.111 43.6281 223.897 43.6773C226.725 43.7203 230.159 43.7693 232.661 43.7693C234.096 43.7693 234.558 43.2145 234.605 42.2849C234.742 40.4769 235.301 37.3258 235.301 36.6788C235.35 36.3511 235.215 35.9356 234.798 35.9356Z" fill="#F5F5F3"/>
<path d="M170.174 24.8072C166.188 23.1425 163.268 21.8874 163.268 18.3636C163.268 16.4185 164.847 13.5909 168.739 13.6359C172.909 13.681 173.793 16.4185 174.396 18.3636C174.904 19.8952 175.092 20.2187 175.602 20.2187C176.296 20.2187 176.296 19.801 176.296 18.7342C176.296 14.33 176.296 13.8694 175.69 13.5438C174.998 13.1711 172.033 12.3849 169.159 12.3849C162.807 12.3849 159.284 16.3714 159.284 21.0049C159.284 26.2917 163.221 28.2859 167.301 30.0468C170.916 31.7134 174.304 33.6136 174.304 37.5101C174.304 41.5457 170.36 42.9318 168.278 42.9318C164.709 42.9318 161.279 39.92 160.35 35.5607C160.26 35.096 160.164 34.5882 159.748 34.5882C159.142 34.5882 159.102 35.2843 159.102 35.4646C159.055 37.2766 159.286 39.408 159.382 40.0551C159.517 41.302 159.703 42.3258 160.262 42.6985C161.138 43.3454 163.645 44.318 167.537 44.318C174.214 44.318 178.295 39.6865 178.295 34.1234C178.241 28.4702 173.001 26.0152 170.174 24.8072Z" fill="#F5F5F3"/>
<path d="M52.2451 12.3849C42.6503 12.3849 35.3693 19.2932 35.3693 28.2859C35.3693 37.8355 43.4346 44.3221 52.1059 44.3221C60.5416 44.3221 68.7481 37.508 68.7481 27.8211C68.7931 19.1969 61.5162 12.3849 52.2451 12.3849ZM52.5214 42.9789C45.9387 42.9789 41.211 35.3335 41.211 27.2663C41.211 20.1716 45.6152 13.7772 51.6881 13.7772C59.4749 13.7772 62.9516 22.1229 62.9516 28.0545C62.9516 35.2372 59.3356 42.9789 52.5214 42.9789Z" fill="#F5F5F3"/>
<path d="M32.2633 1.0271C32.1712 1.0271 32.1241 1.11924 30.222 1.16633C28.3689 1.21137 24.6608 1.30352 17.2898 1.30352H15.7623C8.76182 1.30352 6.16556 1.20933 4.35759 1.16633C2.59467 1.0742 2.50254 1.0271 2.36535 1.0271C1.85552 1.0271 0.927994 1.0271 0.927994 2.00172C0.927994 2.9743 1.99475 3.06848 3.4792 3.20771C7.00095 3.43908 7.00095 5.33918 7.00095 8.25895V27.3582V37.6041C7.00095 39.9669 7.00095 41.5906 3.98699 41.7749C2.73595 41.9141 1.90056 41.9592 1.90056 42.7945C1.90056 43.6749 2.68886 43.6749 3.1516 43.6749C4.31255 43.6749 9.3167 43.4477 10.3364 43.4477C12.3307 43.4477 15.576 43.6749 17.5682 43.6749C18.033 43.6749 18.8193 43.6749 18.8193 42.7945C18.8193 41.867 17.9859 41.8179 16.6877 41.7749C13.6738 41.5906 13.6738 39.9669 13.6738 37.5119V27.4012V26.6171C13.6738 24.6207 13.6738 23.7894 14.8327 23.5089C15.5739 23.3247 18.8664 23.3247 20.9507 23.3247C22.7136 23.3247 27.2571 23.3247 28.2297 27.1719C28.3689 27.5446 28.8336 29.3505 29.016 29.8623C29.1551 30.2268 29.4336 31.0171 30.1298 30.9741C30.9631 30.927 30.9631 30.1388 30.9631 29.6269L30.6846 26.2915C30.5454 24.6677 30.5454 23.4638 30.5454 22.8168C30.5454 21.748 30.7788 16.9261 30.7788 15.9536C30.7788 15.2574 30.5454 14.7946 29.9455 14.7455C29.2943 14.7005 28.9708 15.3004 28.8336 15.9024C27.9512 19.5654 26.9295 21.1419 21.1842 21.1419C20.1195 21.1419 15.8995 21.1419 14.8327 21.0068C13.9073 20.8676 13.723 20.7755 13.723 16.9753V7.05296C13.723 3.7155 14.929 3.57831 17.3369 3.57831C28.371 3.57831 29.2985 5.10781 31.3828 9.83554C31.6613 10.4375 31.9377 11.2729 32.728 11.2729C33.5164 11.2729 33.5164 10.1611 33.5164 9.92769V2.32523C33.4693 1.39975 33.3792 1.0271 32.2633 1.0271Z" fill="#F5F5F3"/>
<path d="M97.395 42.2373C96.0047 42.0531 95.3536 40.798 94.334 39.0821L89.5591 30.6525C88.4473 28.609 87.8474 28.2856 87.1962 27.9129C88.865 27.5894 93.9183 26.3854 93.9183 20.634C93.9183 18.9202 93.1751 12.9414 84.5078 12.9414C83.0235 12.9414 76.5348 13.1257 75.1896 13.1257C74.5877 13.1257 72.1777 12.9414 71.7109 12.9414C70.0892 12.9414 69.9029 12.9414 69.9029 13.6356C69.9029 14.3317 70.5991 14.3767 71.6658 14.4259C74.0737 14.5631 74.0737 15.9083 74.0737 17.9046V38.7197C74.0737 40.755 74.0737 42.0552 71.6658 42.2435C70.6441 42.2865 69.9029 42.3356 69.9029 43.0319C69.9029 43.771 70.554 43.728 70.9247 43.728C71.8051 43.728 75.7916 43.5437 76.6249 43.5437C76.8113 43.5437 81.5861 43.728 82.5115 43.728C82.8822 43.728 83.5332 43.771 83.5332 43.0769C83.5332 42.3377 82.8371 42.2885 81.7704 42.2456C79.3154 42.1022 79.3154 40.7571 79.3154 38.7218V29.9113C79.3154 29.08 79.4075 28.7995 80.2429 28.7995C82.4685 28.7995 82.702 28.9838 83.7667 31.1193L89.6983 42.2885C90.2532 43.3082 90.4396 43.773 91.32 43.773C91.7848 43.773 97.1615 43.773 97.7636 43.773C98.0871 43.773 98.5969 43.6809 98.5969 43.169C98.6931 42.61 98.4126 42.4216 97.395 42.2373ZM81.8175 27.4972C79.3625 27.4972 79.3625 27.4011 79.3625 25.6893V17.4377C79.3625 15.5356 79.4075 14.3317 81.6803 14.3317C87.7512 14.3317 88.4473 19.5693 88.4473 21.3321C88.4473 27.4972 83.5803 27.4972 81.8175 27.4972Z" fill="#F5F5F3"/>
<path d="M128.175 42.2373C126.787 42.0531 126.137 40.798 125.114 39.0821L120.34 30.6525C119.227 28.609 118.628 28.2856 117.979 27.9129C119.645 27.5894 124.699 26.3854 124.699 20.634C124.699 18.9202 123.958 12.9414 115.29 12.9414C113.803 12.9414 107.317 13.1257 105.97 13.1257C105.368 13.1257 102.958 12.9414 102.493 12.9414C100.87 12.9414 100.683 12.9414 100.683 13.6356C100.683 14.3317 101.38 14.3767 102.446 14.4259C104.856 14.5631 104.856 15.9083 104.856 17.9046V38.7197C104.856 40.755 104.856 42.0552 102.446 42.2435C101.425 42.2865 100.683 42.3356 100.683 43.0319C100.683 43.771 101.334 43.728 101.707 43.728C102.587 43.728 106.572 43.5437 107.405 43.5437C107.591 43.5437 112.369 43.728 113.294 43.728C113.668 43.728 114.314 43.771 114.314 43.0769C114.314 42.3377 113.617 42.2885 112.553 42.2456C110.096 42.1022 110.096 40.7571 110.096 38.7218V29.9113C110.096 29.08 110.19 28.7995 111.022 28.7995C113.249 28.7995 113.48 28.9838 114.545 31.1193L120.479 42.2885C121.034 43.3082 121.218 43.773 122.1 43.773C122.563 43.773 127.942 43.773 128.542 43.773C128.868 43.773 129.378 43.6809 129.378 43.169C129.429 42.61 129.198 42.4216 128.175 42.2373ZM112.6 27.4972C110.141 27.4972 110.141 27.4011 110.141 25.6893V17.4377C110.141 15.5356 110.188 14.3317 112.459 14.3317C118.529 14.3317 119.23 19.5693 119.23 21.3321C119.182 27.4972 114.363 27.4972 112.6 27.4972Z" fill="#F5F5F3"/>
<path d="M265.577 42.2378C264.186 42.0535 263.537 40.7984 262.518 39.0825L257.788 30.6959C256.674 28.6566 256.071 28.3331 255.427 27.9604C257.092 27.6329 262.149 26.4289 262.149 20.6815C262.149 18.9678 261.405 12.9869 252.734 12.9869C251.25 12.9869 244.762 13.1732 243.418 13.1732C242.814 13.1732 240.402 12.9869 239.942 12.9869C238.317 12.9869 238.133 12.9869 238.133 13.6831C238.133 14.3771 238.828 14.4242 239.892 14.4713C242.302 14.6085 242.302 15.9558 242.302 17.948V38.7631C242.302 40.7984 242.302 42.0986 239.892 42.2829C238.873 42.3341 238.133 42.3791 238.133 43.0753C238.133 43.8145 238.779 43.7714 239.154 43.7714C240.034 43.7714 244.02 43.5831 244.852 43.5831C245.04 43.5831 249.814 43.7714 250.74 43.7714C251.113 43.7714 251.76 43.8144 251.76 43.1244C251.76 42.3811 251.068 42.336 249.999 42.2849C247.545 42.1498 247.545 40.8005 247.545 38.7652V29.9588C247.545 29.1193 247.634 28.843 248.47 28.843C250.698 28.843 250.929 29.0313 251.995 31.1628L257.927 42.336C258.482 43.3558 258.668 43.8164 259.549 43.8164C260.018 43.8164 265.392 43.8164 265.992 43.8164C266.316 43.8164 266.825 43.7243 266.825 43.2124C266.877 42.6104 266.641 42.4221 265.577 42.2378ZM250.001 27.4977C247.548 27.4977 247.548 27.4015 247.548 25.6897V17.4382C247.548 15.536 247.593 14.3321 249.861 14.3321C255.939 14.3321 256.633 19.5697 256.633 21.3326C256.631 27.4977 251.762 27.4977 250.001 27.4977Z" fill="#F5F5F3"/>
</g>
</g>
<defs>
<clipPath id="clip0_4237_1396">
<rect width="273.13" height="45" fill="white"/>
</clipPath>
<clipPath id="clip1_4237_1396">
<rect width="273.14" height="45" fill="white" transform="translate(-0.00476074)"/>
</clipPath>
</defs>
</svg>
