<svg width="193" height="45" viewBox="0 0 193 45" fill="none" xmlns="http://www.w3.org/2000/svg">
<g clip-path="url(#clip0_4237_1236)">
<g clip-path="url(#clip1_4237_1236)">
<path d="M191.383 15.216L190.83 21.8655H188.124C183.802 21.8655 181.556 25.341 181.556 28.6719V43.69H173.897V15.216H181.152L181.318 18.77C182.839 16.3329 185.503 15.216 188.788 15.216H191.383ZM138.285 43.6898H130.619V28.6371C130.619 25.4848 130.347 21.5171 125.929 21.5171C121.673 21.5171 119.977 24.5989 119.977 28.1873V43.6898H112.314V15.2158H119.419L119.581 18.8559C121.104 16.4189 123.94 14.5213 128.124 14.5213C135.848 14.5213 138.285 20.0537 138.285 25.8114V43.6898ZM108.971 37.0382L108.436 43.5171C106.598 44.0119 104.966 44.1894 102.991 44.1894C95.7685 44.1894 93.6736 40.8664 93.6736 34.1875V7.18635H101.339V15.2164H108.966L108.436 21.865H101.339V33.6092C101.339 36.2894 102.071 37.7373 104.811 37.7373C106.002 37.7373 107.328 37.5933 108.971 37.0382ZM91.1569 15.216L90.5634 21.8655H88.4805C84.168 21.8655 82.0232 25.3368 82.0232 28.6719V43.69H74.3575V15.216H81.6152L81.7664 18.77C83.297 16.3329 85.9605 15.216 89.2493 15.216H91.1569ZM39.7674 40.5352C34.5684 43.3256 29.3755 44.9355 22.5163 44.7355C9.80018 44.346 0.626221 36.4236 0.626221 23.042C0.626221 9.71891 9.88866 1.2063 22.5222 1.00637C28.9262 0.908127 34.6569 2.53861 39.1361 6.50451L33.7405 11.9811C30.9687 9.61034 26.8906 8.22461 22.0173 8.44609C14.0664 8.81751 9.27539 14.6146 9.16974 22.5852C9.06581 31.2211 14.3438 37.1726 22.5944 37.3898C26.4766 37.4871 29.2577 36.964 31.6645 35.8799V27.0527H23.0891L23.668 19.8129H39.7674V40.5352ZM170.475 32.1589H149.46C150.059 35.7974 152.909 37.9862 156.459 38.0854C159.91 38.1792 161.841 37.1331 164.365 34.5685L169.366 38.3947C165.812 42.7873 161.548 44.3859 156.689 44.3859C148.143 44.3859 141.74 38.3904 141.74 29.4521C141.74 20.5233 148.111 14.5209 156.369 14.5209C165.471 14.5209 170.475 20.0535 170.475 29.8744V32.1589ZM162.796 26.2057C162.561 22.6087 159.875 20.3345 156.176 20.4793C152.452 20.6206 149.974 23.0534 149.46 26.2057H162.796ZM69.532 25.0443V43.6896H62.7741L62.6066 40.882C60.5332 43.4588 57.1673 44.386 53.7015 44.386C48.4829 44.386 43.5519 41.8041 43.4489 35.7906C43.2934 26.3386 54.0511 25.6674 60.8073 25.6674H62.1575V25.2934C62.1575 22.1676 60.0961 20.4795 56.2148 20.4795C53.4284 20.4795 50.6782 21.6006 48.6444 23.5138L44.2219 19.0058C48.2372 15.7396 52.4149 14.5211 56.8657 14.5211C65.6566 14.5211 69.532 18.5974 69.532 25.0443ZM62.1575 31.2724H61.0916C57.4627 31.2801 51.0888 31.4594 51.1129 35.2666C51.1471 40.6304 62.1575 38.9258 62.1575 32.4572V31.2724ZM185.404 40.3775C185.404 38.5652 186.766 37.1992 188.515 37.1992C190.241 37.1992 191.606 38.5652 191.606 40.3775C191.606 42.2217 190.241 43.5834 188.515 43.5834C186.766 43.5834 185.404 42.2217 185.404 40.3775ZM188.515 44.2203C190.595 44.2203 192.371 42.5984 192.371 40.3775C192.371 38.1791 190.595 36.5607 188.515 36.5607C186.415 36.5607 184.638 38.1791 184.638 40.3775C184.638 42.5984 186.415 44.2203 188.515 44.2203ZM187.706 40.6844H188.475L189.634 42.5984H190.383L189.131 40.6532C189.777 40.574 190.271 40.2259 190.271 39.4356C190.271 38.5653 189.758 38.1791 188.716 38.1791H187.041V42.5984H187.706V40.6844ZM187.706 40.1146V38.7487H188.614C189.08 38.7487 189.574 38.8496 189.574 39.3969C189.574 40.075 189.069 40.1146 188.506 40.1146H187.706Z" fill="#F5F5F3"/>
</g>
</g>
<defs>
<clipPath id="clip0_4237_1236">
<rect width="192.5" height="45" fill="white"/>
</clipPath>
<clipPath id="clip1_4237_1236">
<rect width="192.5" height="45" fill="white"/>
</clipPath>
</defs>
</svg>
