<svg width="112" height="44" viewBox="0 0 112 44" fill="none" xmlns="http://www.w3.org/2000/svg">
<g clip-path="url(#clip0_4230_2118)">
<g clip-path="url(#clip1_4230_2118)">
<path d="M99.2674 31.5885C98.8557 31.5885 98.5273 31.2601 98.5273 30.8485C98.5273 30.4461 98.8557 30.1085 99.2674 30.1085C99.6698 30.1085 100.007 30.4369 100.007 30.8485C100.007 31.2509 99.6698 31.5885 99.2674 31.5885ZM99.2674 30.2518C98.939 30.2518 98.6707 30.5201 98.6707 30.8485C98.6707 31.1769 98.939 31.4451 99.2674 31.4451C99.5958 31.4451 99.864 31.1769 99.864 30.8485C99.864 30.5201 99.5958 30.2518 99.2674 30.2518ZM99.642 31.237H99.4709L99.3229 30.9595H99.1286V31.237H98.9714V30.423H99.3599C99.531 30.423 99.6374 30.534 99.6374 30.6912C99.6374 30.8115 99.5634 30.8994 99.4662 30.9364L99.642 31.237ZM99.3506 30.8115C99.4107 30.8115 99.4709 30.7745 99.4709 30.6912C99.4709 30.5941 99.42 30.571 99.3506 30.571H99.1055V30.8161H99.3506V30.8115ZM21.994 30.0345H23.8903V35.2008H27.1835V36.8566H21.994V30.0345ZM29.1446 33.4617V33.4386C29.1446 31.4821 30.7264 29.8865 32.8309 29.8865C34.9353 29.8865 36.4894 31.4544 36.4894 33.4109V33.434C36.4894 35.3905 34.9076 36.9861 32.8031 36.9861C30.6987 36.9861 29.1446 35.4182 29.1446 33.4617ZM34.5653 33.4617V33.4386C34.5653 32.4534 33.8623 31.6024 32.8124 31.6024C31.781 31.6024 31.0872 32.4396 31.0872 33.4247V33.4479C31.0872 34.433 31.7902 35.2841 32.8262 35.2841C33.8715 35.2841 34.5653 34.4469 34.5653 33.4617ZM38.8113 33.8641V30.0345H40.7307V33.8271C40.7307 34.8123 41.2303 35.2748 41.9842 35.2748C42.7381 35.2748 43.2376 34.8262 43.2376 33.878V30.0345H45.1571V33.8179C45.1571 36.0195 43.9036 36.9815 41.961 36.9815C40.0277 36.9769 38.8113 36.001 38.8113 33.8641ZM48.0524 30.0345H50.6796C53.1124 30.0345 54.5323 31.4313 54.5323 33.4016V33.4247C54.5323 35.3951 53.0985 36.852 50.6426 36.852H48.0524V30.0345ZM50.7119 35.1777C51.8405 35.1777 52.5944 34.5579 52.5944 33.4525V33.4294C52.5944 32.3332 51.8405 31.7042 50.7119 31.7042H49.9441V35.1684H50.7119V35.1777ZM57.2797 30.0345H62.7374V31.6903H59.1622V32.8558H62.3951V34.4238H59.1622V36.8566H57.2797V30.0345ZM65.3646 30.0345H67.247V35.2008H70.5541V36.8566H65.36V30.0345H65.3646ZM75.4938 29.9836H77.3161L80.2208 36.852H78.1903L77.6908 35.6356H75.0636L74.578 36.852H72.5938L75.4938 29.9836ZM77.1589 34.1648L76.405 32.2314L75.6372 34.1648H77.1589ZM82.6582 30.0345H85.882C86.9273 30.0345 87.6441 30.3027 88.1067 30.7745C88.509 31.163 88.7126 31.6857 88.7126 32.3656V32.3887C88.7126 33.434 88.153 34.1278 87.3158 34.4793L88.9439 36.8613H86.7562L85.3825 34.7938H84.5546V36.8613H82.6582V30.0345ZM85.7941 33.3045C86.437 33.3045 86.8024 32.99 86.8024 32.4997V32.4766C86.8024 31.94 86.4138 31.6718 85.7803 31.6718H84.5407V33.2999L85.7941 33.3045ZM91.4369 30.0345H96.9224V31.6394H93.3101V32.6708H96.5801V34.1648H93.3101V35.2471H96.9686V36.852H91.4369V30.0345ZM17.8591 34.2619C17.5908 34.8586 17.0312 35.2841 16.3004 35.2841C15.269 35.2841 14.5613 34.4192 14.5613 33.4479V33.4247C14.5613 32.4396 15.2551 31.6024 16.2865 31.6024C17.0635 31.6024 17.6602 32.0788 17.9053 32.731H19.8988C19.5843 31.1029 18.1458 29.8957 16.3004 29.8957C14.2005 29.9003 12.6187 31.4914 12.6187 33.4479V33.471C12.6187 35.4321 14.1774 37 16.2773 37C18.0765 37 19.4871 35.8345 19.8525 34.2758L17.8591 34.2619Z" fill="#404041"/>
<path d="M94.6839 19.1518L89.4667 16.1593L88.5648 15.7708L67.2241 15.9188V26.7511H94.6793L94.6839 19.1518Z" fill="white"/>
<path d="M85.1838 25.7516C85.4382 24.8773 85.3411 24.0725 84.9156 23.476C84.5271 22.9302 83.8703 22.6111 83.0794 22.5741L68.1122 22.3798C68.0151 22.3798 67.9318 22.3288 67.8809 22.2596C67.8301 22.1855 67.8208 22.0884 67.8439 21.9913C67.8948 21.8433 68.0382 21.7368 68.1955 21.7229L83.2968 21.5287C85.0821 21.4454 87.0293 19.9978 87.7092 18.2218L88.5741 15.9739C88.6111 15.8768 88.625 15.7796 88.5972 15.6825C87.6306 11.2839 83.7038 8 79.0092 8C74.68 8 71.0076 10.7983 69.694 14.6742C68.843 14.0406 67.7607 13.7029 66.5951 13.8093C64.5138 14.0174 62.8487 15.6824 62.6452 17.7591C62.5943 18.2957 62.6313 18.8184 62.7562 19.3041C59.3659 19.4012 56.6509 22.1717 56.6509 25.5897C56.6509 25.895 56.6741 26.1956 56.7111 26.5009C56.7342 26.6489 56.8591 26.7553 57.0024 26.7553H84.6288C84.7861 26.7553 84.9341 26.6442 84.9803 26.4869L85.1838 25.7516Z" fill="#F38020"/>
<path d="M89.9522 16.136C89.8181 16.136 89.6747 16.136 89.5406 16.1498C89.4435 16.1498 89.3602 16.2238 89.3232 16.321L88.7404 18.3514C88.486 19.2256 88.5832 20.0304 89.0087 20.627C89.3972 21.1728 90.054 21.492 90.8449 21.529L94.0317 21.7232C94.1288 21.7232 94.212 21.7741 94.2629 21.8435C94.3138 21.9175 94.3231 22.0239 94.2999 22.1117C94.2491 22.2597 94.1057 22.3661 93.9484 22.38L90.6275 22.5743C88.8283 22.6575 86.895 24.1052 86.2151 25.8813L85.9699 26.5011C85.9191 26.6213 86.0069 26.7462 86.1411 26.7462H97.5376C97.6717 26.7462 97.792 26.6629 97.829 26.5288C98.0232 25.8258 98.1342 25.0811 98.1342 24.318C98.1342 19.8084 94.4618 16.136 89.9522 16.136Z" fill="#FAAE40"/>
</g>
</g>
<defs>
<clipPath id="clip0_4230_2118">
<rect width="112" height="44" fill="white"/>
</clipPath>
<clipPath id="clip1_4230_2118">
<rect width="112" height="44" fill="white"/>
</clipPath>
</defs>
</svg>
