<svg width="112" height="44" viewBox="0 0 112 44" fill="none" xmlns="http://www.w3.org/2000/svg">
<g clip-path="url(#clip0_4230_2101)">
<g clip-path="url(#clip1_4230_2101)">
<path fill-rule="evenodd" clip-rule="evenodd" d="M103.479 27.6522C103.54 28.3416 104.091 29.219 105.047 29.219H105.606C105.822 29.219 106 29.0414 106 28.8246V16.5318H105.997C105.986 16.3247 105.815 16.1588 105.606 16.1588H103.874C103.664 16.1588 103.493 16.3247 103.482 16.5318H103.479V17.5307C102.418 16.2226 100.745 15.6797 99.0677 15.6797C95.254 15.6797 92.1626 18.7735 92.1626 22.5902C92.1626 26.4071 95.254 29.501 99.0677 29.501C100.745 29.501 102.574 28.85 103.479 27.6506V27.6522ZM99.0744 27.0824C96.649 27.0824 94.6826 25.0714 94.6826 22.5902C94.6826 20.1095 96.649 18.0984 99.0744 18.0984C101.5 18.0984 103.466 20.1095 103.466 22.5902C103.466 25.0714 101.5 27.0824 99.0744 27.0824Z" fill="#0D0E10"/>
<path fill-rule="evenodd" clip-rule="evenodd" d="M89.9725 28.0751L89.9717 21.7141C89.9717 18.1284 87.7115 15.7095 84.1071 15.7095C82.3865 15.7095 80.976 16.7052 80.4779 17.5605C80.3702 16.8917 80.0154 16.1887 78.9151 16.1887H78.3543C78.1374 16.1887 77.9602 16.3664 77.9602 16.5833V27.6831C77.9602 27.6834 77.9602 27.6843 77.9602 27.6848V28.8771H77.9624C77.9738 29.0839 78.1451 29.25 78.3545 29.25H80.0865C80.113 29.25 80.139 29.2468 80.1641 29.2419C80.1756 29.2397 80.1863 29.2352 80.1974 29.232C80.2103 29.2281 80.2237 29.225 80.2359 29.22C80.2514 29.2136 80.2653 29.205 80.2797 29.197C80.2867 29.1927 80.294 29.1897 80.3008 29.1851C80.3181 29.174 80.334 29.1606 80.3493 29.1469C80.3518 29.1443 80.3548 29.1427 80.3573 29.1404C80.3745 29.1237 80.3902 29.1053 80.4042 29.0862C80.4476 29.0266 80.474 28.9546 80.4783 28.8771H80.4805V21.6155C80.4805 19.6897 82.0406 18.1284 83.9651 18.1284C85.8894 18.1284 87.4495 19.6897 87.4495 21.6155L87.4511 27.6852L87.4515 27.6831C87.4515 27.6885 87.4524 27.694 87.4524 27.6998V28.8771H87.4547C87.4661 29.0839 87.6372 29.25 87.8466 29.25H89.5787C89.6053 29.25 89.6312 29.2468 89.6563 29.2419C89.6665 29.24 89.676 29.2359 89.686 29.2331C89.7002 29.229 89.7147 29.2254 89.7284 29.22C89.7425 29.2141 89.7554 29.2059 89.7688 29.1984C89.777 29.1938 89.7856 29.1904 89.7935 29.1851C89.8094 29.1747 89.8241 29.162 89.8384 29.1494C89.8421 29.146 89.8462 29.1435 89.8497 29.14C89.8661 29.1242 89.8807 29.1071 89.8941 29.0892C89.895 29.0878 89.8961 29.0867 89.8971 29.0854C89.9398 29.0263 89.9659 28.9551 89.9704 28.8782C89.9704 28.8777 89.9706 28.8771 89.9706 28.8771H89.9729L89.9725 28.0751Z" fill="#0D0E10"/>
<path fill-rule="evenodd" clip-rule="evenodd" d="M71.9346 27.6522C71.9952 28.3416 72.5466 29.219 73.5018 29.219H74.0608C74.2775 29.219 74.4548 29.0414 74.4548 28.8246V16.5318H74.4526C74.4413 16.3247 74.27 16.1588 74.0608 16.1588H72.3288C72.1194 16.1588 71.9483 16.3247 71.9366 16.5318H71.9346V17.5307C70.8733 16.2226 69.2003 15.6797 67.5225 15.6797C63.709 15.6797 60.6177 18.7735 60.6177 22.5902C60.6177 26.4071 63.709 29.501 67.5225 29.501C69.2003 29.501 71.0288 28.85 71.9344 27.6506L71.9346 27.6522ZM67.5292 27.0824C65.104 27.0824 63.1377 25.0714 63.1377 22.5902C63.1377 20.1095 65.104 18.0984 67.5292 18.0984C69.9547 18.0984 71.9206 20.1095 71.9206 22.5902C71.9206 25.0714 69.9547 27.0824 67.5292 27.0824Z" fill="#0D0E10"/>
<path fill-rule="evenodd" clip-rule="evenodd" d="M50.3756 25.8917C51.5318 26.6933 52.7939 27.0826 54.0066 27.0826C55.162 27.0826 56.3565 26.4832 56.3565 25.4398C56.3565 24.0468 53.7537 23.8301 52.1184 23.2738C50.4828 22.7177 49.0741 21.5678 49.0741 19.7057C49.0741 16.8565 51.6109 15.6797 53.9785 15.6797C55.4787 15.6797 57.0266 16.1748 58.0301 16.884C58.3757 17.146 58.1652 17.4469 58.1652 17.4469L57.2073 18.8161C57.0996 18.9703 56.9114 19.1036 56.6411 18.9366C56.3709 18.7698 55.423 18.0984 53.9785 18.0984C52.534 18.0984 51.6638 18.7661 51.6638 19.5936C51.6638 20.5859 52.7948 20.8981 54.1194 21.2363C56.4279 21.859 58.9462 22.6076 58.9462 25.4398C58.9462 27.9503 56.5998 29.5017 54.0066 29.5017C52.0415 29.5017 50.3684 28.941 48.9651 27.9105C48.6728 27.6177 48.877 27.3459 48.877 27.3459L49.8302 25.9836C50.0241 25.7289 50.2687 25.8177 50.3756 25.8917Z" fill="#0D0E10"/>
<path fill-rule="evenodd" clip-rule="evenodd" d="M43.7173 27.6522C43.7779 28.3416 44.3293 29.219 45.2846 29.219H45.8436C46.0602 29.219 46.2377 29.0414 46.2377 28.8246V16.5318H46.2353C46.224 16.3247 46.0529 16.1588 45.8436 16.1588H44.1116C43.9022 16.1588 43.7311 16.3247 43.7194 16.5318H43.7173V17.5307C42.6562 16.2226 40.9831 15.6797 39.3054 15.6797C35.4919 15.6797 32.4004 18.7735 32.4004 22.5902C32.4004 26.4071 35.4919 29.501 39.3054 29.501C40.9831 29.501 42.8115 28.85 43.7171 27.6506L43.7173 27.6522ZM39.3122 27.0824C36.8868 27.0824 34.9205 25.0714 34.9205 22.5902C34.9205 20.1095 36.8868 18.0984 39.3122 18.0984C41.7375 18.0984 43.7035 20.1095 43.7035 22.5902C43.7035 25.0714 41.7375 27.0824 39.3122 27.0824Z" fill="#0D0E10"/>
<path fill-rule="evenodd" clip-rule="evenodd" d="M22.7197 23.0604C20.1533 23.0604 18.0729 25.1409 18.0729 27.7074C18.0729 30.2738 20.1533 32.3543 22.7197 32.3543C25.286 32.3543 27.3664 30.2738 27.3664 27.7074C27.3664 25.1409 25.286 23.0604 22.7197 23.0604ZM10.6468 23.0608C8.08047 23.0608 6 25.1409 6 27.7074C6 30.2738 8.08047 32.3543 10.6468 32.3543C13.2133 32.3543 15.2938 30.2738 15.2938 27.7074C15.2938 25.1409 13.2133 23.0608 10.6468 23.0608ZM21.33 17.2518C21.33 19.8183 19.2496 21.899 16.6833 21.899C14.1168 21.899 12.0364 19.8183 12.0364 17.2518C12.0364 14.6857 14.1168 12.605 16.6833 12.605C19.2496 12.605 21.33 14.6857 21.33 17.2518Z" fill="#F06A6A"/>
</g>
</g>
<defs>
<clipPath id="clip0_4230_2101">
<rect width="112" height="44" fill="white"/>
</clipPath>
<clipPath id="clip1_4230_2101">
<rect width="112" height="44" fill="white"/>
</clipPath>
</defs>
</svg>
