<svg width="112" height="44" viewBox="0 0 112 44" fill="none" xmlns="http://www.w3.org/2000/svg">
<g clip-path="url(#clip0_4230_2076)">
<g clip-path="url(#clip1_4230_2076)">
<path fill-rule="evenodd" clip-rule="evenodd" d="M23.7981 27.0935V28.9801H12V16.0058H14.124V27.0935H23.7981ZM22.1466 20.7239L24.5056 16.2413H22.2643L20.4946 20.7239H22.1466ZM41.4354 18.1355C40.6704 16.9317 39.5531 15.9198 38.2373 15.2303C36.9215 14.5404 35.4072 14.1728 33.8934 14.1728C32.3796 14.1728 30.8648 14.5404 29.5495 15.2303C28.2337 15.9198 27.1159 16.9317 26.3509 18.1355C25.5859 19.3387 25.1728 20.7343 25.1728 22.1299C25.1728 23.525 25.5859 24.9206 26.3509 26.1238C27.1159 27.3276 28.2332 28.3395 29.5495 29.029C30.8653 29.7189 32.3796 30.0865 33.8934 30.0865C35.4072 30.0865 36.9215 29.7194 38.2373 29.029C39.5531 28.3395 40.6704 27.3276 41.4354 26.1238C42.2009 24.9206 42.6135 23.5245 42.6135 22.1299C42.6135 20.7348 42.2009 19.3392 41.4354 18.1355ZM39.5996 25.3071C39.0289 26.2511 38.1936 27.0474 37.2078 27.5911C36.222 28.1344 35.0862 28.424 33.9499 28.424C32.8136 28.424 31.6777 28.1344 30.692 27.5911C29.7066 27.0474 28.8714 26.2516 28.3001 25.3071C27.7289 24.3626 27.4221 23.2705 27.4221 22.1783C27.4221 21.0857 27.7289 19.9935 28.3001 19.0495C28.8714 18.1055 29.7062 17.3092 30.692 16.766C31.6777 16.2223 32.814 15.9326 33.9499 15.9326C35.0857 15.9326 36.222 16.2223 37.2078 16.766C38.1936 17.3092 39.0284 18.1051 39.5996 19.0495C40.171 19.9934 40.4747 21.075 40.4781 22.1783C40.4745 23.2816 40.1709 24.3632 39.5996 25.3071ZM57.424 21.6009C57.0399 22.4461 56.3134 22.9348 55.745 23.2301C55.1766 23.5259 54.7668 23.6285 54.3541 23.6138L58.4834 28.9805H56.1239L52.1304 23.7909H46.9213V28.9805H44.7978V16.0058H53.2919C54.1504 16.0058 55.0213 16.1748 55.7896 16.6069C56.5579 17.039 57.2227 17.6957 57.5352 18.625C57.8471 19.5538 57.8072 20.7557 57.424 21.6009ZM55.0484 21.5121C55.4957 21.1341 55.7606 20.5126 55.7374 19.8962C55.7146 19.2794 55.4036 18.6687 54.9596 18.296C54.5151 17.9237 53.9472 17.8928 53.4101 17.8928H46.9213V21.9034H53.4101C53.9838 21.9034 54.6011 21.8906 55.0484 21.5121ZM69.6913 21.5496V23.3184H62.4945V27.0935H72.1686V28.9801H60.3705V16.0058H72.1686V17.8928H62.4945V21.5496H69.6913ZM69.809 14H66.6233L65.326 15.6515L69.809 14ZM76.3282 25.6775L74.6459 28.9801H72.5228L79.1289 16.0053H81.2529L87.86 28.9801H85.736L84.0545 25.6775H76.3282ZM80.1907 18.0908L77.1683 24.0264H83.2131L80.1907 18.0908ZM100.719 27.0935V28.9801H88.9217V16.0058H91.0448V27.0935H100.719ZM99.7996 18.6094L99.781 18.2998C99.7782 18.2428 99.7829 18.1858 99.7597 18.1212C99.7363 18.0547 99.7007 17.9932 99.6547 17.9398C99.6221 17.8996 99.5754 17.8733 99.5241 17.8662C99.6158 17.8343 99.6933 17.7711 99.743 17.6877C99.7986 17.5989 99.8328 17.4816 99.8314 17.3558C99.8299 17.2299 99.7915 17.0951 99.7245 16.9953C99.5797 16.7831 99.3247 16.747 99.1015 16.7574H98.1618V18.9251H98.5265V18.0348H99.0716C99.131 18.0348 99.2302 18.0267 99.3295 18.1041C99.461 18.2594 99.4026 18.4636 99.4258 18.6369C99.4277 18.7404 99.4377 18.8382 99.4805 18.9251H99.8903V18.8582C99.8157 18.8273 99.8091 18.719 99.7996 18.6094ZM99.3489 17.6544C99.2359 17.7266 99.1191 17.7271 99.0384 17.7257H98.5236V17.0656C98.7482 17.0685 98.9743 17.0561 99.197 17.0742C99.2483 17.0797 99.2974 17.0983 99.3394 17.1283C99.3815 17.1582 99.4152 17.1984 99.4372 17.2451C99.4843 17.3885 99.4862 17.5424 99.3489 17.6544Z" fill="#1C212B"/>
<path fill-rule="evenodd" clip-rule="evenodd" d="M100.592 16.9194C100.433 16.6431 100.199 16.4094 99.9228 16.2499C99.6465 16.0903 99.3274 16.0049 99.0083 16.0049C98.6892 16.0049 98.3701 16.0903 98.0937 16.2499C97.8174 16.4094 97.5837 16.6431 97.4242 16.9194C97.2646 17.1958 97.1782 17.5149 97.1782 17.834C97.1782 18.1531 97.2646 18.4722 97.4242 18.7481C97.5837 19.024 97.8174 19.258 98.0937 19.4176C98.3701 19.5771 98.6892 19.6626 99.0083 19.6626C99.3274 19.6626 99.6465 19.5771 99.9228 19.4176C100.199 19.258 100.433 19.0244 100.592 18.7481C100.752 18.4717 100.838 18.1531 100.838 17.834C100.838 17.5149 100.752 17.1958 100.592 16.9194ZM100.373 18.6294C100.236 18.8649 100.04 19.0606 99.8041 19.1973C99.5676 19.3331 99.2996 19.4048 99.0268 19.4053C98.7541 19.4051 98.4862 19.3333 98.2498 19.1972C98.0135 19.061 97.8171 18.8652 97.6801 18.6294C97.544 18.3934 97.4724 18.1258 97.4724 17.8534C97.4724 17.5811 97.544 17.3135 97.6801 17.0775C97.8866 16.7207 98.2263 16.4604 98.6246 16.3539C99.0229 16.2474 99.4471 16.3034 99.8041 16.5096C100.039 16.645 100.237 16.843 100.373 17.0775C100.509 17.3136 100.581 17.5811 100.581 17.8534C100.581 18.1241 100.509 18.3948 100.373 18.6294Z" fill="#1C212B"/>
</g>
</g>
<defs>
<clipPath id="clip0_4230_2076">
<rect width="112" height="44" fill="white"/>
</clipPath>
<clipPath id="clip1_4230_2076">
<rect width="112" height="44" fill="white"/>
</clipPath>
</defs>
</svg>
