<svg width="112" height="44" viewBox="0 0 112 44" fill="none" xmlns="http://www.w3.org/2000/svg">
<g clip-path="url(#clip0_4230_2112)">
<path fill-rule="evenodd" clip-rule="evenodd" d="M46.5082 32.2223L45.7691 26.236C43.8122 24.8445 42.3047 23.6993 40.4928 22.3803C39.6374 16.0746 41.2174 12.6538 43.5366 9.40688C46.4212 5.73958 51.0596 3 56.6113 3C62.1632 3.05782 66.816 5.85546 69.5559 9.52276C72.1213 13.0016 73.4985 17.3791 72.498 22.5542L67.4973 26.236L66.7578 32.2223H58.8293C58.3364 32.614 57.6698 32.9761 56.6113 33.0052C55.5677 32.9761 54.9153 32.614 54.3791 32.2223H46.5082Z" fill="#CC2229"/>
<path fill-rule="evenodd" clip-rule="evenodd" d="M56.6115 23.9166C56.1911 18.3358 56.0753 11.4505 55.7274 5.92798C55.1331 5.78296 54.2923 5.82656 53.5966 5.94244C52.9009 6.15997 52.3935 6.34836 51.7992 6.68178C52.8864 11.987 54.1475 18.7417 55.2203 24.0036C53.7563 18.8868 51.7992 12.4799 50.3499 7.37751C49.6542 7.52253 48.9729 7.91377 48.4802 8.31969C47.9584 8.72562 47.6539 9.03012 47.1755 9.75476C49.2772 14.2484 51.7992 19.974 53.9158 24.4384C51.4658 20.3796 48.4942 15.0311 46.03 11.0014C45.5518 11.4218 45.1892 11.7263 44.7108 12.5379C44.3049 13.1903 44.102 13.9585 44.0151 14.6979C46.7113 17.9884 49.9291 21.9311 52.6397 25.2067C49.8134 22.4815 46.3343 18.9737 43.5369 16.2486C43.2615 16.7993 43.0876 17.2633 43.0006 18.1763C42.8992 19.0605 43.0731 20.1185 43.2615 20.7564L48.7262 24.8152L49.3061 29.3233L55.3217 29.3666C55.7565 29.874 55.9013 30.1349 56.6118 30.1782C57.2928 30.1349 57.6845 29.7145 57.8584 29.3666H63.8592L64.4677 24.8441L69.8893 20.8143C70.0919 20.1477 70.2222 19.1183 70.1502 18.2342C70.0632 17.2775 69.8893 16.7991 69.6573 16.2917C66.8454 19.0024 63.3518 22.5105 60.5544 25.2353C63.2793 21.9884 66.4684 18.0311 69.1933 14.7119C69.0485 13.9728 68.8746 13.2187 68.4395 12.5666C67.9322 11.7548 67.6421 11.4505 67.1784 11.0157C64.6999 15.0308 61.6848 20.4232 59.235 24.4526C61.4096 19.9737 63.8736 14.2481 66.0047 9.81282C65.5409 9.1024 65.2073 8.74007 64.7435 8.36329C64.1928 7.94291 63.5115 7.55168 62.8447 7.3922C61.3227 12.4799 59.453 18.9448 57.9743 24.018C59.0032 18.7562 60.2935 12.0595 61.3227 6.76897C60.8011 6.39196 60.2937 6.20357 59.612 6.00072C58.8295 5.8557 58.0613 5.82679 57.4523 5.92821C57.0466 11.4941 57.0317 18.3649 56.6115 23.9166Z" fill="#F6D330"/>
<path fill-rule="evenodd" clip-rule="evenodd" d="M40 38.5998H42.8121C42.7688 39.2232 43.0733 39.368 43.2183 39.4697C43.3775 39.5275 44.5519 39.5853 45.1316 39.4839C45.3635 39.4405 45.5808 39.3535 45.5808 38.6431C45.5808 38.3389 45.5083 38.0054 45.1605 37.9327C43.9282 37.8315 42.7252 37.9618 41.4932 37.8457C40.2609 37.5706 40.0728 37.2514 40 36.2803C40.087 34.9322 40.5654 34.541 41.9425 34.4974C43.3772 34.454 44.8129 34.454 46.2477 34.4974C47.7117 34.4974 48.1609 35.063 48.1609 36.295H45.5808C45.5808 35.686 45.465 35.4543 45.1605 35.4251C44.5331 35.3817 43.9035 35.3817 43.2761 35.4251C43.0441 35.4251 42.7398 35.5412 42.7398 36.0919C42.7398 36.6135 42.8702 36.7441 43.2183 36.7879C44.2763 36.831 45.3491 36.8457 46.3927 36.9178C48.132 37.0194 48.1901 37.7877 48.2479 38.5993C48.2768 39.7592 47.8564 40.1647 47.5522 40.3536C47.2624 40.4839 45.8562 40.6436 45.5808 40.6436H42.7979C42.1744 40.6436 41.3917 40.5711 40.7105 40.368C40.0725 40.1943 40 39.3391 40 38.5998ZM66.4252 40.6725H68.8892V34.5268H66.4252V40.6725ZM70.5415 40.6725H72.9768V34.5268H70.5415V40.6725ZM64.9901 37.4545C64.9452 37.2623 64.887 37.0734 64.8157 36.8893C64.3953 36.208 62.946 36.2081 61.5401 36.1789C60.482 36.1789 58.9022 36.2081 58.4382 36.6571C58.2496 36.8602 58.1482 37.15 58.0903 37.4545C58.0178 37.8171 58.032 38.1936 58.032 38.3678C58.032 38.6865 58.0612 39.9185 58.6555 40.2374C59.2062 40.6 60.873 40.6436 61.5107 40.6436C62.192 40.6436 64.0766 40.5711 64.3522 40.2519C64.8446 40.078 64.9607 39.4694 65.0621 38.9912H62.6415C62.6415 39.4694 62.2645 39.7595 61.5107 39.7154C60.8294 39.7592 60.4382 39.5998 60.4382 38.7448L65.0619 38.759C65.0621 38.3389 65.0771 37.8893 64.9901 37.4545ZM62.6415 37.8749H60.4382C60.4382 37.7009 60.4673 37.5557 60.5107 37.4545C60.6697 37.0633 61.0759 37.0488 61.5105 37.0197C62.1773 37.0197 62.4674 37.1791 62.5835 37.4545C62.6415 37.5706 62.656 37.7154 62.6415 37.8749ZM49.6974 40.6725H52.1036V38.0633C52.1617 37.7012 52.2486 37.4111 53.1327 37.4111C53.9733 37.3969 54.2053 37.6284 54.2053 38.0633V40.6725H56.6114V38.0633C56.6114 37.2081 56.5972 36.7443 56.0463 36.4983C55.5534 36.1791 54.8429 36.2227 54.1764 36.2227C53.4806 36.2227 52.6979 36.3097 52.1036 36.5997V34.527H49.6974V40.6725Z" fill="#CC2229"/>
</g>
<defs>
<clipPath id="clip0_4230_2112">
<rect width="112" height="44" fill="white"/>
</clipPath>
</defs>
</svg>
