<svg width="112" height="44" viewBox="0 0 112 44" fill="none" xmlns="http://www.w3.org/2000/svg">
<g clip-path="url(#clip0_4230_2064)">
<g clip-path="url(#clip1_4230_2064)">
<path d="M65.2385 22.0811L61.9258 18.7725L64.5295 16.1722L66.3005 17.9411L65.2385 22.0811ZM64.5295 13.0516L61.9258 10.4513L65.2385 7.14274L66.3005 11.283L64.5295 13.0516ZM59.5313 4.52176L63.6765 5.58229L60.3638 8.89104L57.7602 6.29067L59.5313 4.52176ZM54.6359 6.29075L52.0322 8.89104L48.7196 5.58244L52.8648 4.52176L54.6359 6.29075ZM47.1571 7.14243L50.47 10.4513L47.8665 13.0516L46.0951 11.2824L47.1571 7.14243ZM47.8665 16.172L50.47 18.7723L47.1571 22.0811L46.0951 17.9411L47.8665 16.172ZM52.8646 24.702L48.7193 23.6414L52.0322 20.3326L54.6358 22.933L52.8646 24.702ZM58.8015 18.7725L56.1979 21.3728L53.5943 18.7725L56.1979 16.172L58.8015 18.7725ZM60.3637 12.0114L62.9673 14.6119L60.3637 17.2122L57.76 14.6119L60.3637 12.0114ZM54.6358 14.6119L52.0322 17.2122L49.4287 14.6119L52.0322 12.0116L54.6358 14.6119ZM53.5944 10.4513L56.198 7.85097L58.8015 10.4513L56.1979 13.0516L53.5944 10.4513ZM57.76 22.933L60.3637 20.3328L63.6763 23.6414L59.5311 24.7019L57.76 22.933ZM66.8076 25.2083L68.8254 17.3422L66.0917 14.6119L68.8252 11.8814L66.8075 4.01522L58.9315 2L56.198 4.73045L53.464 2.00008L45.5881 4.01545L43.5704 11.8816L46.3044 14.6119L43.5704 17.3424L45.5881 25.2085L53.4641 27.2238L56.1979 24.4932L58.9316 27.2236L66.8076 25.2083ZM74.2412 33.3982C73.92 32.9445 73.5366 32.5813 73.0925 32.3072C72.3637 31.8534 71.3706 31.6265 70.1125 31.6265H66.9346V41.078H70.6519C71.9945 41.078 73.0733 40.6439 73.8867 39.7748C74.7 38.9056 75.1065 37.7533 75.1065 36.3171C75.1065 35.1743 74.8178 34.2016 74.2412 33.3982ZM70.3824 38.9388H69.3464V33.7664H70.3966C71.1344 33.7664 71.7014 33.9944 72.0987 34.4499C72.4962 34.9058 72.6945 35.5521 72.6945 36.3875C72.6945 38.0887 71.9235 38.9388 70.3824 38.9388ZM62.466 41.0784H64.8779V31.627H62.466V41.0784ZM55.585 31.6268L51.7972 41.0784H54.3933L54.8899 39.7042H58.181L58.6349 41.0784H61.2603L57.5002 31.6268H55.585ZM55.5568 37.7913L56.55 34.5605L57.5285 37.7913H55.5568ZM48.0659 31.6268H45.6542V41.0784H50.8612V38.9385H48.0659V31.6268ZM43.0013 32.3354C42.4336 31.8631 41.4641 31.6272 40.0928 31.6272H37V41.0782H39.3127V38.1171H40.3482C41.6062 38.1171 42.5283 37.8429 43.1146 37.2945C43.7763 36.681 44.1076 35.864 44.1076 34.8434C44.1076 33.7856 43.739 32.9496 43.0013 32.3354ZM40.2912 35.9772H39.3127V33.7665H40.192C41.2607 33.7665 41.795 34.1375 41.795 34.8788C41.795 35.6113 41.2939 35.9772 40.2912 35.9772Z" fill="#111212"/>
</g>
</g>
<defs>
<clipPath id="clip0_4230_2064">
<rect width="112" height="44" fill="white"/>
</clipPath>
<clipPath id="clip1_4230_2064">
<rect width="112" height="44" fill="white"/>
</clipPath>
</defs>
</svg>
