<svg width="112" height="44" viewBox="0 0 112 44" fill="none" xmlns="http://www.w3.org/2000/svg">
<g clip-path="url(#clip0_4230_2126)">
<g clip-path="url(#clip1_4230_2126)">
<path d="M17.6049 15.7818L11.8025 19.4855L17.6049 23.1892L11.8025 26.8929L6 23.1583L11.8025 19.4546L6 15.7818L11.8025 12.0781L17.6049 15.7818ZM11.7716 28.0657L17.5741 24.362L23.3765 28.0657L17.5741 31.7694L11.7716 28.0657ZM17.6049 23.1583L23.4074 19.4546L17.6049 15.7818L23.3765 12.0781L29.179 15.7818L23.3765 19.4855L29.179 23.1892L23.3765 26.8929L17.6049 23.1583Z" fill="#0061FF"/>
<path d="M33.7158 15.7815H38.4072C41.401 15.7815 43.8701 17.5099 43.8701 21.4606V22.2939C43.8701 26.2754 41.5553 28.0655 38.4998 28.0655H33.7158V15.7815ZM36.3393 18.0038V25.8124H38.3455C40.043 25.8124 41.185 24.7013 41.185 22.2322V21.584C41.185 19.1149 39.9813 18.0038 38.2529 18.0038H36.3393ZM45.259 18.1272H47.3578L47.6973 20.442C48.0985 18.868 49.1171 18.0346 50.9689 18.0346H51.6171V20.689H50.5368C48.4072 20.689 47.8825 21.4297 47.8825 23.5285V28.0964H45.2899V18.1272H45.259ZM52.1417 23.3124V23.0346C52.1417 19.7013 54.2714 17.8803 57.1726 17.8803C60.1356 17.8803 62.2035 19.7013 62.2035 23.0346V23.3124C62.2035 26.584 60.1973 28.3433 57.1726 28.3433C53.9627 28.3124 52.1417 26.584 52.1417 23.3124ZM59.5492 23.2815V23.0346C59.5492 21.1828 58.6232 20.0717 57.1417 20.0717C55.6911 20.0717 54.7343 21.0902 54.7343 23.0346V23.2815C54.7343 25.0717 55.6603 26.0902 57.1417 26.0902C58.6232 26.0593 59.5492 25.0717 59.5492 23.2815ZM63.5615 18.1272H65.722L65.9689 20.0099C66.4936 18.7445 67.6047 17.8803 69.2405 17.8803C71.7714 17.8803 73.438 19.7013 73.438 23.0655V23.3433C73.438 26.6149 71.5862 28.3433 69.2405 28.3433C67.6664 28.3433 66.5862 27.6334 66.0615 26.4914V31.5223H63.5306L63.5615 18.1272ZM70.8146 23.2815V23.0655C70.8146 21.0902 69.7961 20.1025 68.438 20.1025C66.9874 20.1025 66.0306 21.2136 66.0306 23.0655V23.2507C66.0306 25.0099 66.9566 26.1211 68.4072 26.1211C69.8887 26.0902 70.8146 25.1334 70.8146 23.2815ZM77.2652 26.2445L77.0492 28.0655H74.8269V14.7939H77.3578V19.8865C77.9134 18.5902 79.0245 17.8803 80.5985 17.8803C82.9751 17.9112 84.7343 19.547 84.7343 22.8494V23.1581C84.7343 26.4606 83.0677 28.3433 80.5368 28.3433C78.8701 28.3124 77.7899 27.5408 77.2652 26.2445ZM82.08 23.1581V22.9112C82.08 21.0902 81.0924 20.0717 79.7035 20.0717C78.2837 20.0717 77.2961 21.2136 77.2961 22.942V23.1581C77.2961 25.0099 78.2529 26.0902 79.6726 26.0902C81.185 26.0902 82.08 25.1334 82.08 23.1581ZM85.8455 23.3124V23.0346C85.8455 19.7013 87.9751 17.8803 90.8763 17.8803C93.8393 17.8803 95.9072 19.7013 95.9072 23.0346V23.3124C95.9072 26.584 93.8701 28.3433 90.8763 28.3433C87.6664 28.3124 85.8455 26.584 85.8455 23.3124ZM93.2837 23.2815V23.0346C93.2837 21.1828 92.3578 20.0717 90.8763 20.0717C89.4257 20.0717 88.4689 21.0902 88.4689 23.0346V23.2815C88.4689 25.0717 89.3948 26.0902 90.8763 26.0902C92.3578 26.0593 93.2837 25.0717 93.2837 23.2815ZM99.3022 22.9112L95.8146 18.1272H98.8084L100.815 21.1211L102.852 18.1272H105.815L102.265 22.8803L106 28.0655H103.068L100.784 24.763L98.5615 28.0655H95.5059L99.3022 22.9112Z" fill="black"/>
</g>
</g>
<defs>
<clipPath id="clip0_4230_2126">
<rect width="112" height="44" fill="white"/>
</clipPath>
<clipPath id="clip1_4230_2126">
<rect width="112" height="44" fill="white"/>
</clipPath>
</defs>
</svg>
